<?xml version="1.0" encoding="UTF-8" standalone="no"?>
<!-- Created with Inkscape (http://www.inkscape.org/) -->

<svg
   width="104.00225mm"
   height="64.542267mm"
   viewBox="0 0 104.00225 64.542267"
   version="1.1"
   id="svg1"
   xmlns="http://www.w3.org/2000/svg"
   xmlns:svg="http://www.w3.org/2000/svg">
  <defs
     id="defs1">
    <marker
       style="overflow:visible"
       id="ConcaveTriangle"
       refX="0"
       refY="0"
       orient="auto-start-reverse"
       markerWidth="1"
       markerHeight="1"
       viewBox="0 0 1 1"
       preserveAspectRatio="xMidYMid">
      <path
         d="M -1.4,-2.8 6.3,0 -1.4,2.8 C 0,1.169 0,-1.162 -1.4,-2.8 Z"
         style="fill:context-stroke;fill-rule:evenodd;stroke:none;stroke-width:0.7"
         id="path7" />
    </marker>
    <marker
       style="overflow:visible"
       id="ConcaveTriangle-4"
       refX="0"
       refY="0"
       orient="auto-start-reverse"
       markerWidth="1"
       markerHeight="1"
       viewBox="0 0 1 1"
       preserveAspectRatio="xMidYMid">
      <path
         d="M -1.4,-2.8 6.3,0 -1.4,2.8 C 0,1.169 0,-1.162 -1.4,-2.8 Z"
         style="fill:context-stroke;fill-rule:evenodd;stroke:none;stroke-width:0.7"
         id="path7-8" />
    </marker>
    <marker
       style="overflow:visible"
       id="ConcaveTriangle-4-1"
       refX="0"
       refY="0"
       orient="auto-start-reverse"
       markerWidth="1"
       markerHeight="1"
       viewBox="0 0 1 1"
       preserveAspectRatio="xMidYMid">
      <path
         d="M -1.4,-2.8 6.3,0 -1.4,2.8 C 0,1.169 0,-1.162 -1.4,-2.8 Z"
         style="fill:context-stroke;fill-rule:evenodd;stroke:none;stroke-width:0.7"
         id="path7-8-7" />
    </marker>
  </defs>
  <g
     id="layer2"
     transform="translate(-67.70993,-79.89473)">
    <rect
       style="fill:#ffffff;fill-opacity:1;stroke:none;stroke-width:0.25;stroke-opacity:1"
       id="rect1"
       width="104.00225"
       height="64.542267"
       x="67.70993"
       y="79.89473" />
  </g>
  <g
     id="layer1"
     transform="translate(-67.70993,-79.89473)">
    <rect
       style="fill:#b3ff00;fill-opacity:0.356863;stroke:none;stroke-width:0.264583;stroke-opacity:1"
       id="rect2-5"
       width="29.427734"
       height="10.672116"
       x="104.94802"
       y="132.17935"
       ry="2.2069688" />
    <rect
       style="fill:#b3ff00;fill-opacity:0.356863;stroke:none;stroke-width:0.264583;stroke-opacity:1"
       id="rect2-5-4"
       width="30.969051"
       height="5.2514038"
       x="138.23882"
       y="137.04433"
       ry="2.2069688" />
    <rect
       style="fill:#b3ff00;fill-opacity:0.356863;stroke:none;stroke-width:0.264583;stroke-opacity:1"
       id="rect2"
       width="29.470615"
       height="14.68898"
       x="70.214249"
       y="128.16254"
       ry="3.3498585" />
    <circle
       style="fill:#b5b5b5;fill-opacity:1;stroke:#b5b5b5;stroke-width:0.338921;stroke-dasharray:none;stroke-opacity:1"
       id="path38-8-2-1-8"
       cx="-124.74522"
       cy="-108.03677"
       r="0.66411483"
       transform="scale(-1)" />
    <circle
       style="display:inline;fill:#b5b5b5;fill-opacity:1;stroke:#b5b5b5;stroke-width:0.338921;stroke-dasharray:none;stroke-opacity:1"
       id="path38-5-2-9-0-5"
       cx="-124.74522"
       cy="-105.26276"
       r="0.66411483"
       transform="scale(-1)" />
    <circle
       style="display:inline;fill:#b5b5b5;fill-opacity:1;stroke:#b5b5b5;stroke-width:0.338921;stroke-dasharray:none;stroke-opacity:1"
       id="path38-9-9-0-3-1"
       cx="-124.74522"
       cy="-102.48862"
       r="0.66411483"
       transform="scale(-1)" />
    <rect
       style="display:inline;fill:none;fill-opacity:1;stroke:#b8b8b8;stroke-width:0.407786;stroke-dasharray:none;stroke-dashoffset:0;stroke-opacity:1"
       id="rect124-7-9"
       width="35.23769"
       height="10.440918"
       x="71.422173"
       y="100.04224"
       ry="1.8024334" />
    <path
       style="fill:none;stroke:#b8b8b8;stroke-width:0.264583px;stroke-linecap:butt;stroke-linejoin:miter;stroke-opacity:1"
       d="m 106.66164,103.81278 8.38587,-14.590553"
       id="path131" />
    <path
       style="fill:none;stroke:#b8b8b8;stroke-width:0.264583px;stroke-linecap:butt;stroke-linejoin:miter;stroke-opacity:1"
       d="m 106.66164,106.68477 8.38587,14.59063"
       id="path131-8" />
    <circle
       style="fill:#b5b5b5;fill-opacity:1;stroke:#b5b5b5;stroke-width:0.165473;stroke-dasharray:none;stroke-opacity:1"
       id="path38-8-2-2"
       cx="89.356384"
       cy="-150.62071"
       r="0.32424372"
       transform="rotate(90)" />
    <circle
       style="display:inline;fill:#b5b5b5;fill-opacity:1;stroke:#b5b5b5;stroke-width:0.165473;stroke-dasharray:none;stroke-opacity:1"
       id="path38-5-2-9-4"
       cx="89.356384"
       cy="-149.26634"
       r="0.32424372"
       transform="rotate(90)" />
    <circle
       style="display:inline;fill:#b5b5b5;fill-opacity:1;stroke:#b5b5b5;stroke-width:0.165473;stroke-dasharray:none;stroke-opacity:1"
       id="path38-9-9-0-37"
       cx="89.356384"
       cy="-147.91191"
       r="0.32424372"
       transform="rotate(90)" />
    <rect
       style="display:inline;fill:none;fill-opacity:1;stroke:#b8b8b8;stroke-width:0.264999;stroke-dasharray:none;stroke-dashoffset:0;stroke-opacity:1"
       id="rect124-1"
       width="12.23156"
       height="2.5386257"
       x="143.15054"
       y="81.612709"
       ry="1.2693129" />
    <rect
       style="display:inline;fill:none;fill-opacity:1;stroke:#b8b8b8;stroke-width:0.264999;stroke-dasharray:none;stroke-dashoffset:0;stroke-opacity:1"
       id="rect124-0-2"
       width="12.23156"
       height="2.5386257"
       x="143.15054"
       y="85.223572"
       ry="1.2693129" />
    <rect
       style="display:inline;fill:none;fill-opacity:1;stroke:#b8b8b8;stroke-width:0.264999;stroke-dasharray:none;stroke-dashoffset:0;stroke-opacity:1"
       id="rect124-3-2"
       width="12.23156"
       height="2.5386257"
       x="143.15054"
       y="90.951164"
       ry="1.2693129" />
    <rect
       style="display:inline;fill:none;fill-opacity:1;stroke:#b8b8b8;stroke-width:0.264999;stroke-dasharray:none;stroke-dashoffset:0;stroke-opacity:1"
       id="rect124-6-0"
       width="12.23156"
       height="2.5386257"
       x="143.15054"
       y="94.561981"
       ry="1.2693129" />
    <rect
       style="display:inline;fill:none;fill-opacity:1;stroke:#b8b8b8;stroke-width:0.264999;stroke-dasharray:none;stroke-dashoffset:0;stroke-opacity:1"
       id="rect124-7-2"
       width="19.576057"
       height="7.3527222"
       x="114.95712"
       y="117.43031"
       ry="1.2693129" />
    <path
       style="display:inline;fill:none;stroke:#b8b8b8;stroke-width:0.264583px;stroke-linecap:butt;stroke-linejoin:miter;stroke-opacity:1"
       d="m 143.15053,114.63202 -8.61734,4.97523"
       id="path127-1" />
    <path
       style="display:inline;fill:none;stroke:#b8b8b8;stroke-width:0.264583px;stroke-linecap:butt;stroke-linejoin:miter;stroke-opacity:1"
       d="m 143.15053,118.24282 -8.61734,2.30899"
       id="path128-7" />
    <path
       style="display:inline;fill:none;stroke:#b8b8b8;stroke-width:0.264583px;stroke-linecap:butt;stroke-linejoin:miter;stroke-opacity:1"
       d="m 143.15053,123.97036 -8.61734,-2.30902"
       id="path129-5" />
    <path
       style="display:inline;fill:none;stroke:#b8b8b8;stroke-width:0.264583px;stroke-linecap:butt;stroke-linejoin:miter;stroke-opacity:1"
       d="m 143.15053,127.58113 -8.61734,-4.97523"
       id="path130-1" />
    <path
       d="m 121.3051,119.71897 q -0.56797,0 -0.89394,0.3803 -0.32597,0.38029 -0.32597,1.0421 0,0.65687 0.30128,1.04211 0.30621,0.38029 0.91369,0.38029 0.22719,0 0.43462,-0.0395 0.20744,-0.0395 0.40993,-0.0988 v 0.38524 q -0.19755,0.0741 -0.40993,0.10865 -0.20743,0.0346 -0.49882,0.0346 -0.53834,0 -0.89888,-0.22225 -0.36054,-0.22225 -0.54328,-0.63218 -0.1778,-0.40993 -0.1778,-0.96309 0,-0.5334 0.19262,-0.93839 0.19755,-0.40992 0.57785,-0.63711 0.38029,-0.23213 0.92357,-0.23213 0.55809,0 0.97296,0.20743 l -0.1778,0.37536 q -0.16298,-0.0741 -0.36548,-0.13335 -0.19755,-0.0593 -0.43462,-0.0593 z m 2.55341,0.49389 q 0.48401,0 0.71614,0.21237 0.23212,0.21238 0.23212,0.67663 v 1.8027 h -0.31609 l -0.084,-0.37536 h -0.0198 q -0.17286,0.21731 -0.36548,0.32103 -0.19262,0.10372 -0.52352,0.10372 -0.36054,0 -0.59761,-0.18768 -0.23706,-0.19262 -0.23706,-0.59761 0,-0.39511 0.31115,-0.60748 0.31115,-0.21731 0.95814,-0.23707 l 0.44944,-0.0148 v -0.15804 q 0,-0.33091 -0.14323,-0.45932 -0.14323,-0.12841 -0.40499,-0.12841 -0.20743,0 -0.39511,0.0642 -0.18768,0.0593 -0.35066,0.13829 l -0.13335,-0.32597 q 0.17286,-0.0938 0.40993,-0.15804 0.23706,-0.0691 0.49389,-0.0691 z m 0.51858,1.39771 -0.39017,0.0148 q -0.49389,0.0198 -0.68651,0.15805 -0.18768,0.13829 -0.18768,0.39017 0,0.22225 0.13335,0.32597 0.13829,0.10371 0.35067,0.10371 0.3309,0 0.55315,-0.18273 0.22719,-0.18768 0.22719,-0.57292 z m 2.48427,-1.40265 q 0.0741,0 0.15804,0.01 0.084,0.005 0.15311,0.0198 l -0.0543,0.40005 q -0.0642,-0.0148 -0.14323,-0.0247 -0.079,-0.01 -0.14323,-0.01 -0.20249,0 -0.38029,0.1136 -0.1778,0.10865 -0.28646,0.31115 -0.10371,0.19755 -0.10371,0.46425 v 1.41253 h -0.43463 v -2.64725 h 0.3556 l 0.0494,0.48401 h 0.0198 q 0.12347,-0.21731 0.32596,-0.37535 0.20744,-0.15805 0.48402,-0.15805 z m 1.64464,2.74603 q -0.49388,0 -0.79022,-0.34079 -0.29633,-0.34572 -0.29633,-1.02729 0,-0.68156 0.29633,-1.02729 0.30127,-0.35066 0.79516,-0.35066 0.30621,0 0.49883,0.1136 0.19756,0.11359 0.32103,0.27657 h 0.0296 q -0.01,-0.0642 -0.0198,-0.18767 -0.01,-0.12841 -0.01,-0.2025 V 119.151 h 0.43462 v 3.75356 h -0.35066 l -0.0642,-0.3556 h -0.0197 q -0.11853,0.16792 -0.31609,0.28645 -0.19756,0.11854 -0.50871,0.11854 z m 0.0692,-0.36054 q 0.4198,0 0.58773,-0.22719 0.17286,-0.23213 0.17286,-0.69639 v -0.079 q 0,-0.49389 -0.16299,-0.75565 -0.16298,-0.2667 -0.60254,-0.2667 -0.35066,0 -0.52846,0.28152 -0.17286,0.27658 -0.17286,0.74577 0,0.47413 0.17286,0.7359 0.1778,0.26176 0.5334,0.26176 z"
       id="text135-8"
       style="font-size:4.93889px;line-height:1.25;font-family:Sans;-inkscape-font-specification:Sans;text-align:center;text-anchor:middle;stroke-width:0.264583"
       aria-label="Card" />
    <circle
       style="fill:#b5b5b5;fill-opacity:1;stroke:#b5b5b5;stroke-width:0.165473;stroke-dasharray:none;stroke-opacity:1"
       id="path38-8-2"
       cx="121.16911"
       cy="-150.55446"
       r="0.32424372"
       transform="rotate(90)" />
    <circle
       style="display:inline;fill:#b5b5b5;fill-opacity:1;stroke:#b5b5b5;stroke-width:0.165473;stroke-dasharray:none;stroke-opacity:1"
       id="path38-5-2-9"
       cx="121.16911"
       cy="-149.20009"
       r="0.32424372"
       transform="rotate(90)" />
    <circle
       style="display:inline;fill:#b5b5b5;fill-opacity:1;stroke:#b5b5b5;stroke-width:0.165473;stroke-dasharray:none;stroke-opacity:1"
       id="path38-9-9-0"
       cx="121.16911"
       cy="-147.84566"
       r="0.32424372"
       transform="rotate(90)" />
    <rect
       style="fill:none;fill-opacity:1;stroke:#b8b8b8;stroke-width:0.264999;stroke-dasharray:none;stroke-dashoffset:0;stroke-opacity:1"
       id="rect124"
       width="12.23156"
       height="2.5386257"
       x="143.08427"
       y="113.42496"
       ry="1.2693129" />
    <rect
       style="display:inline;fill:none;fill-opacity:1;stroke:#b8b8b8;stroke-width:0.264999;stroke-dasharray:none;stroke-dashoffset:0;stroke-opacity:1"
       id="rect124-0"
       width="12.23156"
       height="2.5386257"
       x="143.08427"
       y="117.03577"
       ry="1.2693129" />
    <rect
       style="display:inline;fill:none;fill-opacity:1;stroke:#b8b8b8;stroke-width:0.264999;stroke-dasharray:none;stroke-dashoffset:0;stroke-opacity:1"
       id="rect124-3"
       width="12.23156"
       height="2.5386257"
       x="143.08427"
       y="122.76326"
       ry="1.2693129" />
    <rect
       style="display:inline;fill:none;fill-opacity:1;stroke:#b8b8b8;stroke-width:0.264999;stroke-dasharray:none;stroke-dashoffset:0;stroke-opacity:1"
       id="rect124-6"
       width="12.23156"
       height="2.5386257"
       x="143.08427"
       y="126.37397"
       ry="1.2693129" />
    <rect
       style="display:inline;fill:none;fill-opacity:1;stroke:#b8b8b8;stroke-width:0.264999;stroke-dasharray:none;stroke-dashoffset:0;stroke-opacity:1"
       id="rect124-7"
       width="19.443558"
       height="7.3527222"
       x="115.02339"
       y="85.742447"
       ry="1.2693129" />
    <path
       style="fill:none;stroke:#b8b8b8;stroke-width:0.264583px;stroke-linecap:butt;stroke-linejoin:miter;stroke-opacity:1"
       d="m 143.08428,82.944279 -8.61734,4.97523"
       id="path127" />
    <path
       style="fill:none;stroke:#b8b8b8;stroke-width:0.264583px;stroke-linecap:butt;stroke-linejoin:miter;stroke-opacity:1"
       d="m 143.08428,86.555079 -8.61734,2.30899"
       id="path128" />
    <path
       style="fill:none;stroke:#b8b8b8;stroke-width:0.264583px;stroke-linecap:butt;stroke-linejoin:miter;stroke-opacity:1"
       d="m 143.08428,92.282619 -8.61734,-2.30902"
       id="path129" />
    <path
       style="fill:none;stroke:#b8b8b8;stroke-width:0.264583px;stroke-linecap:butt;stroke-linejoin:miter;stroke-opacity:1"
       d="m 143.08428,95.893389 -8.61734,-4.97523"
       id="path130" />
    <path
       d="m 121.28582,87.998513 q -0.56797,0 -0.89394,0.380295 -0.32596,0.380294 -0.32596,1.042106 0,0.656872 0.30127,1.042105 0.30621,0.380295 0.91369,0.380295 0.22719,0 0.43462,-0.03951 0.20744,-0.03951 0.40993,-0.09878 v 0.385233 q -0.19755,0.07408 -0.40993,0.108656 -0.20743,0.03457 -0.49882,0.03457 -0.53834,0 -0.89888,-0.22225 -0.36054,-0.22225 -0.54328,-0.632178 -0.1778,-0.409928 -0.1778,-0.963083 0,-0.5334 0.19262,-0.938389 0.19755,-0.409928 0.57785,-0.637117 0.38029,-0.232128 0.92357,-0.232128 0.55809,0 0.97296,0.207433 l -0.1778,0.375356 q -0.16298,-0.07408 -0.36548,-0.13335 -0.19755,-0.05927 -0.43462,-0.05927 z m 2.55341,0.493889 q 0.48401,0 0.71614,0.212373 0.23212,0.212372 0.23212,0.676627 v 1.802695 h -0.31608 l -0.084,-0.375355 h -0.0198 q -0.17286,0.217311 -0.36548,0.321028 -0.19262,0.103716 -0.52352,0.103716 -0.36054,0 -0.59761,-0.187678 -0.23706,-0.192616 -0.23706,-0.597605 0,-0.395112 0.31115,-0.607484 0.31115,-0.217311 0.95814,-0.237067 l 0.44944,-0.01482 v -0.158045 q 0,-0.330905 -0.14323,-0.459316 -0.14323,-0.128412 -0.40499,-0.128412 -0.20743,0 -0.39511,0.06421 -0.18768,0.05927 -0.35066,0.138289 l -0.13335,-0.325967 q 0.17286,-0.09384 0.40993,-0.158044 0.23707,-0.06915 0.49389,-0.06915 z m 0.51858,1.397706 -0.39017,0.01482 q -0.49389,0.01975 -0.68651,0.158044 -0.18767,0.138289 -0.18767,0.390173 0,0.22225 0.13335,0.325966 0.13828,0.103717 0.35066,0.103717 0.3309,0 0.55315,-0.182739 0.22719,-0.187678 0.22719,-0.572911 z m 2.48427,-1.402645 q 0.0741,0 0.15804,0.0099 0.084,0.0049 0.15311,0.01976 l -0.0543,0.40005 q -0.0642,-0.01482 -0.14323,-0.02469 -0.079,-0.0099 -0.14323,-0.0099 -0.20249,0 -0.38029,0.113594 -0.1778,0.108656 -0.28646,0.31115 -0.10371,0.197556 -0.10371,0.464256 v 1.412522 h -0.43463 V 88.53686 h 0.3556 l 0.0494,0.484011 h 0.0198 q 0.12347,-0.217311 0.32597,-0.375355 0.20743,-0.158045 0.48401,-0.158045 z m 1.64465,2.746023 q -0.49389,0 -0.79023,-0.340783 -0.29633,-0.345723 -0.29633,-1.027289 0,-0.681567 0.29633,-1.027289 0.30128,-0.350662 0.79516,-0.350662 0.30622,0 0.49883,0.113595 0.19756,0.113594 0.32103,0.276578 h 0.0296 q -0.01,-0.06421 -0.0197,-0.187678 -0.01,-0.128411 -0.01,-0.202495 v -1.056922 h 0.43462 v 3.753556 h -0.35066 l -0.0642,-0.3556 h -0.0198 q -0.11853,0.167922 -0.31609,0.286456 -0.19755,0.118533 -0.5087,0.118533 z m 0.0691,-0.360539 q 0.41981,0 0.58773,-0.227189 0.17286,-0.232128 0.17286,-0.696383 v -0.07902 q 0,-0.493889 -0.16298,-0.755651 -0.16299,-0.2667 -0.60255,-0.2667 -0.35066,0 -0.52846,0.281517 -0.17286,0.276578 -0.17286,0.745772 0,0.474134 0.17286,0.735895 0.1778,0.261761 0.5334,0.261761 z"
       id="text135"
       style="font-size:4.93889px;line-height:1.25;font-family:Sans;-inkscape-font-specification:Sans;text-align:center;text-anchor:middle;stroke-width:0.264583"
       aria-label="Card" />
    <path
       d="m 146.9509,113.93694 q -0.32455,0 -0.51082,0.21731 -0.18627,0.21731 -0.18627,0.59549 0,0.37535 0.17216,0.59549 0.17498,0.21731 0.52211,0.21731 0.12982,0 0.24835,-0.0226 0.11854,-0.0226 0.23425,-0.0564 v 0.22013 q -0.11289,0.0423 -0.23425,0.0621 -0.11853,0.0198 -0.28504,0.0198 -0.30762,0 -0.51364,-0.127 -0.20603,-0.127 -0.31045,-0.36124 -0.1016,-0.23425 -0.1016,-0.55033 0,-0.3048 0.11007,-0.53623 0.11289,-0.23424 0.3302,-0.36406 0.21731,-0.13265 0.52775,-0.13265 0.31891,0 0.55598,0.11854 l -0.1016,0.21449 q -0.0931,-0.0423 -0.20884,-0.0762 -0.11289,-0.0339 -0.24836,-0.0339 z m 1.13453,-0.32456 v 0.62936 q 0,0.11289 -0.0141,0.21167 h 0.0169 q 0.0734,-0.11572 0.19755,-0.17498 0.127,-0.0593 0.27376,-0.0593 0.27375,0 0.41204,0.13265 0.14111,0.12982 0.14111,0.42051 v 0.98495 h -0.24553 v -0.96802 q 0,-0.36407 -0.33867,-0.36407 -0.254,0 -0.34995,0.14394 -0.0931,0.14111 -0.0931,0.4064 v 0.78175 h -0.24835 v -2.14489 z m 2.06869,0.60678 q 0.27658,0 0.40922,0.12136 0.13265,0.12135 0.13265,0.38664 v 1.03011 h -0.18062 l -0.048,-0.21449 h -0.0113 q -0.0988,0.12418 -0.20885,0.18345 -0.11006,0.0593 -0.29915,0.0593 -0.20602,0 -0.34149,-0.10724 -0.13547,-0.11007 -0.13547,-0.34149 0,-0.22578 0.1778,-0.34713 0.1778,-0.12418 0.54751,-0.13547 l 0.25683,-0.008 v -0.0903 q 0,-0.18909 -0.0819,-0.26246 -0.0818,-0.0734 -0.23142,-0.0734 -0.11853,0 -0.22578,0.0367 -0.10724,0.0339 -0.20037,0.079 l -0.0762,-0.18627 q 0.0988,-0.0536 0.23424,-0.0903 0.13547,-0.0395 0.28222,-0.0395 z m 0.29633,0.79869 -0.22295,0.008 q -0.28222,0.0113 -0.39229,0.0903 -0.10724,0.079 -0.10724,0.22295 0,0.127 0.0762,0.18627 0.079,0.0593 0.20037,0.0593 0.18909,0 0.31609,-0.10443 0.12982,-0.10724 0.12982,-0.32737 z m 1.44216,-0.80151 q 0.27093,0 0.40922,0.13264 0.13829,0.13265 0.13829,0.42334 v 0.98495 h -0.24553 v -0.96802 q 0,-0.36407 -0.33867,-0.36407 -0.25117,0 -0.34713,0.14111 -0.096,0.14111 -0.096,0.4064 v 0.78458 h -0.24835 v -1.51271 h 0.20038 l 0.0367,0.20602 h 0.0141 q 0.0734,-0.11853 0.2032,-0.17497 0.12982,-0.0593 0.27375,-0.0593 z"
       id="text135-2"
       style="font-size:2.82222px;line-height:1.25;font-family:Sans;-inkscape-font-specification:Sans;text-align:center;text-anchor:middle;stroke-width:0.152758"
       aria-label="Chan" />
    <path
       d="m 146.9509,117.54775 q -0.32455,0 -0.51082,0.21731 -0.18627,0.21731 -0.18627,0.59549 0,0.37535 0.17216,0.59549 0.17498,0.21731 0.52211,0.21731 0.12982,0 0.24835,-0.0226 0.11854,-0.0226 0.23425,-0.0564 v 0.22014 q -0.11289,0.0423 -0.23425,0.0621 -0.11853,0.0198 -0.28504,0.0198 -0.30762,0 -0.51364,-0.127 -0.20603,-0.127 -0.31045,-0.36124 -0.1016,-0.23425 -0.1016,-0.55033 0,-0.3048 0.11007,-0.53623 0.11289,-0.23424 0.3302,-0.36406 0.21731,-0.13265 0.52775,-0.13265 0.31891,0 0.55598,0.11854 l -0.1016,0.21448 q -0.0931,-0.0423 -0.20884,-0.0762 -0.11289,-0.0339 -0.24836,-0.0339 z m 1.13453,-0.32456 v 0.62936 q 0,0.11289 -0.0141,0.21166 h 0.0169 q 0.0734,-0.11571 0.19755,-0.17497 0.127,-0.0593 0.27376,-0.0593 0.27375,0 0.41204,0.13264 0.14111,0.12983 0.14111,0.42052 v 0.98495 h -0.24553 v -0.96802 q 0,-0.36407 -0.33867,-0.36407 -0.254,0 -0.34995,0.14394 -0.0931,0.14111 -0.0931,0.4064 v 0.78175 h -0.24835 v -2.14489 z m 2.06869,0.60678 q 0.27658,0 0.40922,0.12136 0.13265,0.12135 0.13265,0.38664 v 1.03011 h -0.18062 l -0.048,-0.21449 h -0.0113 q -0.0988,0.12418 -0.20885,0.18345 -0.11006,0.0593 -0.29915,0.0593 -0.20602,0 -0.34149,-0.10724 -0.13547,-0.11007 -0.13547,-0.34149 0,-0.22578 0.1778,-0.34713 0.1778,-0.12418 0.54751,-0.13547 l 0.25683,-0.008 v -0.0903 q 0,-0.18909 -0.0819,-0.26246 -0.0818,-0.0734 -0.23142,-0.0734 -0.11853,0 -0.22578,0.0367 -0.10724,0.0339 -0.20037,0.079 l -0.0762,-0.18627 q 0.0988,-0.0536 0.23424,-0.0903 0.13547,-0.0395 0.28222,-0.0395 z m 0.29633,0.79869 -0.22295,0.008 q -0.28222,0.0113 -0.39229,0.0903 -0.10724,0.079 -0.10724,0.22295 0,0.127 0.0762,0.18627 0.079,0.0593 0.20037,0.0593 0.18909,0 0.31609,-0.10442 0.12982,-0.10724 0.12982,-0.32737 z m 1.44216,-0.80151 q 0.27093,0 0.40922,0.13264 0.13829,0.13265 0.13829,0.42334 v 0.98495 h -0.24553 v -0.96802 q 0,-0.36407 -0.33867,-0.36407 -0.25117,0 -0.34713,0.14111 -0.096,0.14111 -0.096,0.4064 v 0.78458 h -0.24835 v -1.51271 h 0.20038 l 0.0367,0.20602 h 0.0141 q 0.0734,-0.11853 0.2032,-0.17498 0.12982,-0.0593 0.27375,-0.0593 z"
       id="text135-2-6"
       style="font-size:2.82222px;line-height:1.25;font-family:Sans;-inkscape-font-specification:Sans;text-align:center;text-anchor:middle;stroke-width:0.152758"
       aria-label="Chan" />
    <path
       d="m 146.9509,123.27529 q -0.32455,0 -0.51082,0.21731 -0.18627,0.21731 -0.18627,0.59549 0,0.37535 0.17216,0.59549 0.17498,0.21731 0.52211,0.21731 0.12982,0 0.24835,-0.0226 0.11854,-0.0226 0.23425,-0.0564 v 0.22014 q -0.11289,0.0423 -0.23425,0.0621 -0.11853,0.0198 -0.28504,0.0198 -0.30762,0 -0.51364,-0.127 -0.20603,-0.127 -0.31045,-0.36124 -0.1016,-0.23425 -0.1016,-0.55034 0,-0.3048 0.11007,-0.53622 0.11289,-0.23424 0.3302,-0.36406 0.21731,-0.13265 0.52775,-0.13265 0.31891,0 0.55598,0.11854 l -0.1016,0.21448 q -0.0931,-0.0423 -0.20884,-0.0762 -0.11289,-0.0339 -0.24836,-0.0339 z m 1.13453,-0.32456 v 0.62936 q 0,0.11289 -0.0141,0.21166 h 0.0169 q 0.0734,-0.11571 0.19755,-0.17497 0.127,-0.0593 0.27376,-0.0593 0.27375,0 0.41204,0.13264 0.14111,0.12983 0.14111,0.42051 v 0.98496 h -0.24553 v -0.96802 q 0,-0.36407 -0.33867,-0.36407 -0.254,0 -0.34995,0.14393 -0.0931,0.14112 -0.0931,0.4064 v 0.78176 h -0.24835 v -2.14489 z m 2.06869,0.60678 q 0.27658,0 0.40922,0.12135 0.13265,0.12136 0.13265,0.38665 v 1.03011 h -0.18062 l -0.048,-0.21449 h -0.0113 q -0.0988,0.12418 -0.20885,0.18344 -0.11006,0.0593 -0.29915,0.0593 -0.20602,0 -0.34149,-0.10724 -0.13547,-0.11007 -0.13547,-0.34149 0,-0.22578 0.1778,-0.34713 0.1778,-0.12418 0.54751,-0.13547 l 0.25683,-0.008 v -0.0903 q 0,-0.18909 -0.0819,-0.26247 -0.0818,-0.0734 -0.23142,-0.0734 -0.11853,0 -0.22578,0.0367 -0.10724,0.0339 -0.20037,0.079 l -0.0762,-0.18627 q 0.0988,-0.0536 0.23424,-0.0903 0.13547,-0.0395 0.28222,-0.0395 z m 0.29633,0.79869 -0.22295,0.008 q -0.28222,0.0113 -0.39229,0.0903 -0.10724,0.079 -0.10724,0.22295 0,0.127 0.0762,0.18627 0.079,0.0593 0.20037,0.0593 0.18909,0 0.31609,-0.10442 0.12982,-0.10724 0.12982,-0.32738 z m 1.44216,-0.80151 q 0.27093,0 0.40922,0.13264 0.13829,0.13265 0.13829,0.42333 v 0.98496 h -0.24553 v -0.96802 q 0,-0.36407 -0.33867,-0.36407 -0.25117,0 -0.34713,0.14111 -0.096,0.14111 -0.096,0.4064 v 0.78458 h -0.24835 v -1.51271 h 0.20038 l 0.0367,0.20602 h 0.0141 q 0.0734,-0.11853 0.2032,-0.17498 0.12982,-0.0593 0.27375,-0.0593 z"
       id="text135-2-9"
       style="font-size:2.82222px;line-height:1.25;font-family:Sans;-inkscape-font-specification:Sans;text-align:center;text-anchor:middle;stroke-width:0.152758"
       aria-label="Chan" />
    <path
       d="m 146.9509,126.88601 q -0.32455,0 -0.51082,0.21731 -0.18627,0.21731 -0.18627,0.59549 0,0.37536 0.17216,0.59549 0.17498,0.21731 0.52211,0.21731 0.12982,0 0.24835,-0.0226 0.11854,-0.0226 0.23425,-0.0564 v 0.22013 q -0.11289,0.0423 -0.23425,0.0621 -0.11853,0.0198 -0.28504,0.0198 -0.30762,0 -0.51364,-0.127 -0.20603,-0.127 -0.31045,-0.36125 -0.1016,-0.23424 -0.1016,-0.55033 0,-0.3048 0.11007,-0.53622 0.11289,-0.23425 0.3302,-0.36407 0.21731,-0.13264 0.52775,-0.13264 0.31891,0 0.55598,0.11853 l -0.1016,0.21449 q -0.0931,-0.0423 -0.20884,-0.0762 -0.11289,-0.0339 -0.24836,-0.0339 z m 1.13453,-0.32455 v 0.62935 q 0,0.11289 -0.0141,0.21167 h 0.0169 q 0.0734,-0.11571 0.19755,-0.17498 0.127,-0.0593 0.27376,-0.0593 0.27375,0 0.41204,0.13265 0.14111,0.12982 0.14111,0.42051 v 0.98495 h -0.24553 v -0.96802 q 0,-0.36406 -0.33867,-0.36406 -0.254,0 -0.34995,0.14393 -0.0931,0.14111 -0.0931,0.4064 v 0.78175 h -0.24835 v -2.14488 z m 2.06869,0.60677 q 0.27658,0 0.40922,0.12136 0.13265,0.12136 0.13265,0.38664 v 1.03011 h -0.18062 l -0.048,-0.21448 h -0.0113 q -0.0988,0.12417 -0.20885,0.18344 -0.11006,0.0593 -0.29915,0.0593 -0.20602,0 -0.34149,-0.10725 -0.13547,-0.11006 -0.13547,-0.34149 0,-0.22577 0.1778,-0.34713 0.1778,-0.12418 0.54751,-0.13547 l 0.25683,-0.008 v -0.0903 q 0,-0.18909 -0.0819,-0.26247 -0.0818,-0.0734 -0.23142,-0.0734 -0.11853,0 -0.22578,0.0367 -0.10724,0.0339 -0.20037,0.079 l -0.0762,-0.18626 q 0.0988,-0.0536 0.23424,-0.0903 0.13547,-0.0395 0.28222,-0.0395 z m 0.29633,0.79869 -0.22295,0.008 q -0.28222,0.0113 -0.39229,0.0903 -0.10724,0.079 -0.10724,0.22296 0,0.127 0.0762,0.18626 0.079,0.0593 0.20037,0.0593 0.18909,0 0.31609,-0.10442 0.12982,-0.10725 0.12982,-0.32738 z m 1.44216,-0.80151 q 0.27093,0 0.40922,0.13265 0.13829,0.13264 0.13829,0.42333 v 0.98495 h -0.24553 v -0.96802 q 0,-0.36406 -0.33867,-0.36406 -0.25117,0 -0.34713,0.14111 -0.096,0.14111 -0.096,0.4064 v 0.78457 h -0.24835 v -1.51271 h 0.20038 l 0.0367,0.20603 h 0.0141 q 0.0734,-0.11854 0.2032,-0.17498 0.12982,-0.0593 0.27375,-0.0593 z"
       id="text135-2-9-7"
       style="font-size:2.82222px;line-height:1.25;font-family:Sans;-inkscape-font-specification:Sans;text-align:center;text-anchor:middle;stroke-width:0.152758"
       aria-label="Chan" />
    <path
       d="m 77.201812,107.27776 h -0.592666 l -2.156176,-3.34715 h -0.02258 q 0.01129,0.19756 0.02822,0.49107 0.01693,0.29351 0.01693,0.60395 v 2.25213 h -0.468488 v -4.03013 h 0.587022 l 2.150531,3.33587 h 0.02258 q -0.0056,-0.0903 -0.01693,-0.27094 -0.0056,-0.18062 -0.01693,-0.38946 -0.0056,-0.21449 -0.0056,-0.40076 v -2.27471 h 0.474133 z m 2.229555,0 h -1.456265 v -0.29351 l 0.474133,-0.10724 v -3.22298 l -0.474133,-0.11289 v -0.29351 h 1.456265 v 0.29351 l -0.474133,0.11289 v 3.22298 l 0.474133,0.10724 z m 3.064935,-1.07808 q 0,0.53622 -0.389466,0.83537 -0.389467,0.29916 -1.049866,0.29916 -0.338666,0 -0.626533,-0.0508 -0.287866,-0.0508 -0.479777,-0.14111 v -0.48543 q 0.2032,0.0903 0.502355,0.16369 0.3048,0.0734 0.626533,0.0734 0.445911,0 0.677333,-0.17498 0.231422,-0.17497 0.231422,-0.47413 0,-0.19755 -0.08467,-0.33302 -0.08467,-0.13547 -0.293511,-0.24836 -0.208844,-0.11289 -0.570088,-0.24835 -0.519289,-0.18627 -0.778933,-0.4572 -0.259644,-0.27093 -0.259644,-0.73942 0,-0.31609 0.163688,-0.54751 0.163689,-0.23143 0.451556,-0.3556 0.287866,-0.12418 0.671688,-0.12418 0.327378,0 0.603955,0.0621 0.276578,0.0621 0.508,0.16369 l -0.158045,0.43462 q -0.208844,-0.0903 -0.457199,-0.1524 -0.248356,-0.0621 -0.508,-0.0621 -0.378177,0 -0.570088,0.16369 -0.191911,0.15804 -0.191911,0.42333 0,0.2032 0.08467,0.33867 0.08467,0.13546 0.276578,0.24835 0.191911,0.10725 0.519288,0.22578 0.3556,0.12982 0.598311,0.28222 0.248355,0.14676 0.372533,0.3556 0.129822,0.20885 0.129822,0.52494 z m 1.755419,0.72813 q 0.112889,0 0.231422,-0.0169 0.118534,-0.0169 0.191911,-0.0452 v 0.37818 q -0.07902,0.0395 -0.225777,0.0621 -0.146756,0.0282 -0.282222,0.0282 -0.237067,0 -0.440267,-0.079 -0.197555,-0.0847 -0.321733,-0.28787 -0.124177,-0.2032 -0.124177,-0.57009 v -1.76106 H 82.8519 v -0.23707 l 0.434622,-0.19756 0.197555,-0.64346 h 0.293511 v 0.69426 h 0.874889 v 0.38383 h -0.874889 v 1.74977 q 0,0.27658 0.129823,0.41205 0.135466,0.12982 0.34431,0.12982 z m 2.438399,-2.73191 q 0.08467,0 0.180622,0.0113 0.09596,0.006 0.174978,0.0226 l -0.06209,0.4572 q -0.07338,-0.0169 -0.163689,-0.0282 -0.09031,-0.0113 -0.163689,-0.0113 -0.231422,0 -0.434621,0.12983 -0.2032,0.12417 -0.327378,0.3556 -0.118533,0.22577 -0.118533,0.53057 v 1.61431 h -0.49671 v -3.02542 h 0.4064 l 0.05644,0.55316 h 0.02258 q 0.141111,-0.24836 0.372533,-0.42898 0.237066,-0.18062 0.553155,-0.18062 z m 1.975552,0 q 0.383822,0 0.666044,0.16933 0.282222,0.16934 0.428977,0.47978 0.1524,0.3048 0.1524,0.71684 v 0.29916 h -2.071509 q 0.01129,0.51364 0.259644,0.78458 0.254,0.26528 0.705555,0.26528 0.287866,0 0.507999,-0.0508 0.225778,-0.0564 0.462845,-0.15804 v 0.43462 q -0.231423,0.1016 -0.4572,0.14676 -0.225778,0.0508 -0.536222,0.0508 -0.434622,0 -0.761999,-0.17498 -0.327378,-0.17498 -0.513644,-0.51929 -0.180623,-0.34431 -0.180623,-0.85231 0,-0.49671 0.163689,-0.85231 0.169333,-0.3556 0.468489,-0.54751 0.3048,-0.19191 0.705555,-0.19191 z m -0.0056,0.4064 q -0.355599,0 -0.564444,0.23142 -0.2032,0.22578 -0.242711,0.63218 h 1.540933 q -0.0056,-0.38382 -0.180623,-0.62089 -0.174977,-0.24271 -0.553155,-0.24271 z m 3.166527,-0.40076 q 0.553155,0 0.818444,0.24271 0.265289,0.24272 0.265289,0.77329 v 2.06022 h -0.361244 l -0.09596,-0.42897 h -0.02258 q -0.197555,0.24835 -0.417688,0.36688 -0.220133,0.11854 -0.598311,0.11854 -0.412044,0 -0.682977,-0.21449 -0.270933,-0.22013 -0.270933,-0.68298 0,-0.45155 0.355599,-0.69426 0.3556,-0.24836 1.095022,-0.27094 l 0.513644,-0.0169 v -0.18062 q 0,-0.37818 -0.163689,-0.52494 -0.163689,-0.14675 -0.462844,-0.14675 -0.237066,0 -0.451555,0.0734 -0.214489,0.0677 -0.400755,0.15804 l -0.1524,-0.37253 q 0.197555,-0.10725 0.468488,-0.18062 0.270933,-0.079 0.564444,-0.079 z m 0.592666,1.59738 -0.44591,0.0169 q -0.564444,0.0226 -0.784577,0.18063 -0.214489,0.15804 -0.214489,0.44591 0,0.254 0.1524,0.37253 0.158044,0.11853 0.400755,0.11853 0.378177,0 0.632177,-0.20884 0.259644,-0.21449 0.259644,-0.65476 z m 4.746978,-1.60302 q 0.513644,0 0.767644,0.26529 0.254,0.26529 0.254,0.84666 v 1.96991 h -0.491066 v -1.94733 q 0,-0.71684 -0.615244,-0.71684 -0.440267,0 -0.632178,0.254 -0.186266,0.254 -0.186266,0.73942 v 1.67075 h -0.491067 v -1.94733 q 0,-0.71684 -0.620888,-0.71684 -0.4572,0 -0.632177,0.28222 -0.174978,0.28222 -0.174978,0.8128 v 1.56915 h -0.496711 v -3.02542 h 0.400756 l 0.07338,0.41205 h 0.02822 q 0.141111,-0.23707 0.378177,-0.34996 0.242711,-0.11853 0.513644,-0.11853 0.7112,0 0.925688,0.508 h 0.02822 q 0.1524,-0.25965 0.412045,-0.38382 0.259644,-0.12418 0.558799,-0.12418 z m 3.127027,0 q 0.38382,0 0.66604,0.16933 0.28221,0.16934 0.42897,0.47978 0.1524,0.3048 0.1524,0.71684 v 0.29916 h -2.071507 q 0.01129,0.51364 0.259644,0.78458 0.254,0.26528 0.705553,0.26528 0.28786,0 0.508,-0.0508 0.22577,-0.0564 0.46284,-0.15804 v 0.43462 q -0.23142,0.1016 -0.4572,0.14676 -0.22578,0.0508 -0.53622,0.0508 -0.434617,0 -0.761995,-0.17498 -0.327378,-0.17498 -0.513644,-0.51929 -0.180622,-0.34431 -0.180622,-0.85231 0,-0.49671 0.163689,-0.85231 0.169333,-0.3556 0.468488,-0.54751 0.3048,-0.19191 0.705564,-0.19191 z m -0.006,0.4064 q -0.355603,0 -0.564447,0.23142 -0.2032,0.22578 -0.242711,0.63218 h 1.540938 q -0.006,-0.38382 -0.18063,-0.62089 -0.17498,-0.24271 -0.55315,-0.24271 z m 3.43182,-0.4064 q 0.0847,0 0.18062,0.0113 0.096,0.006 0.17498,0.0226 l -0.0621,0.4572 q -0.0734,-0.0169 -0.16369,-0.0282 -0.0903,-0.0113 -0.16369,-0.0113 -0.23142,0 -0.43462,0.12983 -0.2032,0.12417 -0.32738,0.3556 -0.11853,0.22577 -0.11853,0.53057 v 1.61431 h -0.49671 v -3.02542 h 0.4064 l 0.0564,0.55316 h 0.0226 q 0.14111,-0.24836 0.37253,-0.42898 0.23707,-0.18062 0.55316,-0.18062 z"
       id="text140"
       style="font-size:5.64444px;line-height:1.25;font-family:Sans;-inkscape-font-specification:Sans;text-align:center;text-anchor:middle;stroke-width:0.264583"
       aria-label="NIStreamer" />
    <g
       id="text140-8"
       style="font-size:3.52778px;line-height:1.25;font-family:Sans;-inkscape-font-specification:Sans;text-align:center;text-anchor:middle;fill:#344512;stroke-width:0.264583"
       aria-label="compile&#10;run control&#10;global settings">
      <path
         d="m 79.437412,131.80307 q -0.254,0 -0.448028,-0.10231 -0.194028,-0.1023 -0.306917,-0.3175 -0.109361,-0.21519 -0.109361,-0.55033 0,-0.34925 0.112889,-0.56797 0.116417,-0.21872 0.3175,-0.32103 0.201083,-0.10231 0.455084,-0.10231 0.141111,0 0.275166,0.0317 0.137584,0.0282 0.222251,0.0706 l -0.09525,0.25753 q -0.08467,-0.0317 -0.197556,-0.06 -0.112889,-0.0282 -0.211667,-0.0282 -0.557389,0 -0.557389,0.71614 0,0.3422 0.134055,0.52564 0.137584,0.17992 0.405695,0.17992 0.151695,0 0.271639,-0.0318 0.119945,-0.0317 0.218723,-0.0776 v 0.27516 q -0.09525,0.0494 -0.211667,0.0741 -0.112889,0.0282 -0.275167,0.0282 z m 2.578806,-0.98425 q 0,0.46919 -0.23989,0.72672 -0.236361,0.25753 -0.642055,0.25753 -0.250473,0 -0.448029,-0.11289 -0.194027,-0.11642 -0.306916,-0.33514 -0.112889,-0.22225 -0.112889,-0.53622 0,-0.4692 0.232833,-0.7232 0.236361,-0.254 0.645584,-0.254 0.254,0 0.451556,0.11642 0.197555,0.11289 0.306917,0.33161 0.112889,0.2152 0.112889,0.52917 z m -1.428751,0 q 0,0.33514 0.130527,0.53269 0.134056,0.19403 0.423334,0.19403 0.28575,0 0.419806,-0.19403 0.134056,-0.19755 0.134056,-0.53269 0,-0.33514 -0.134056,-0.52564 -0.134056,-0.1905 -0.423334,-0.1905 -0.289278,0 -0.419806,0.1905 -0.130527,0.1905 -0.130527,0.52564 z m 3.993445,-0.9772 q 0.321028,0 0.479778,0.16581 0.15875,0.16581 0.15875,0.52917 v 1.23119 h -0.306917 v -1.21708 q 0,-0.44803 -0.384528,-0.44803 -0.275167,0 -0.395111,0.15875 -0.116417,0.15875 -0.116417,0.46214 v 1.04422 H 83.70955 v -1.21708 q 0,-0.44803 -0.388055,-0.44803 -0.285751,0 -0.395112,0.17639 -0.109361,0.17639 -0.109361,0.508 v 0.98072 h -0.310445 v -1.89089 h 0.250473 l 0.04586,0.25753 h 0.01764 q 0.08819,-0.14817 0.236361,-0.21872 0.151695,-0.0741 0.321028,-0.0741 0.4445,0 0.578556,0.3175 h 0.01764 q 0.09525,-0.16227 0.257528,-0.23989 0.162278,-0.0776 0.34925,-0.0776 z m 2.123722,0 q 0.34925,0 0.560917,0.24342 0.215194,0.24342 0.215194,0.73378 0,0.4833 -0.215194,0.73378 -0.211667,0.25047 -0.564445,0.25047 -0.218722,0 -0.363361,-0.0811 -0.141112,-0.0811 -0.222251,-0.19403 h -0.02117 q 0.0035,0.06 0.01058,0.1517 0.01058,0.0917 0.01058,0.15875 v 0.77611 H 85.80505 v -2.73756 h 0.254 l 0.04233,0.25753 h 0.01411 q 0.08467,-0.12347 0.222251,-0.20814 0.137583,-0.0847 0.366889,-0.0847 z m -0.05644,0.26106 q -0.289278,0 -0.409222,0.16228 -0.119945,0.16228 -0.123473,0.49389 v 0.06 q 0,0.34925 0.112889,0.53975 0.116417,0.18697 0.426862,0.18697 0.169333,0 0.282222,-0.0917 0.112889,-0.0953 0.165806,-0.26106 0.05644,-0.1658 0.05644,-0.37747 0,-0.32455 -0.127,-0.51858 -0.123472,-0.19403 -0.384528,-0.19403 z m 1.485195,-0.93486 q 0.07055,0 0.123472,0.0494 0.05644,0.0459 0.05644,0.14816 0,0.10231 -0.05644,0.1517 -0.05292,0.0459 -0.123472,0.0459 -0.07761,0 -0.130528,-0.0459 -0.05292,-0.0494 -0.05292,-0.1517 0,-0.1023 0.05292,-0.14816 0.05292,-0.0494 0.130528,-0.0494 z m 0.151694,0.70908 v 1.89089 h -0.310444 v -1.89089 z m 0.910166,1.89089 h -0.310445 v -2.68111 h 0.310445 z m 1.329971,-1.92617 q 0.239889,0 0.416278,0.10584 0.176389,0.10583 0.268111,0.29986 0.09525,0.1905 0.09525,0.44803 v 0.18697 h -1.294695 q 0.0071,0.32103 0.162278,0.49036 0.15875,0.16581 0.440972,0.16581 0.179917,0 0.3175,-0.0317 0.141112,-0.0353 0.289278,-0.0988 v 0.27164 q -0.144639,0.0635 -0.28575,0.0917 -0.141111,0.0317 -0.335139,0.0317 -0.271639,0 -0.47625,-0.10936 -0.204612,-0.10936 -0.321028,-0.32456 -0.112889,-0.21519 -0.112889,-0.53269 0,-0.31045 0.102305,-0.5327 0.105834,-0.22225 0.292806,-0.34219 0.1905,-0.11995 0.440973,-0.11995 z m -0.0035,0.254 q -0.22225,0 -0.352778,0.14464 -0.127,0.14111 -0.151695,0.39511 h 0.963084 q -0.0035,-0.23988 -0.112889,-0.38805 -0.109361,-0.1517 -0.345722,-0.1517 z"
         id="path11" />
      <path
         d="m 76.890351,134.25135 q 0.05292,0 0.112889,0.007 0.05997,0.004 0.109362,0.0141 l -0.03881,0.28575 q -0.04586,-0.0106 -0.102306,-0.0176 -0.05644,-0.007 -0.102305,-0.007 -0.144639,0 -0.271639,0.0811 -0.127,0.0776 -0.204612,0.22225 -0.07408,0.14111 -0.07408,0.33161 v 1.00895 h -0.310445 v -1.89089 h 0.254001 l 0.03528,0.34572 h 0.01411 q 0.08819,-0.15522 0.232833,-0.26811 0.148167,-0.11289 0.345722,-0.11289 z m 2.155474,0.0353 v 1.89089 h -0.254 l -0.04586,-0.25048 h -0.01411 q -0.09172,0.14817 -0.254,0.21873 -0.162278,0.067 -0.345723,0.067 -0.342194,0 -0.515055,-0.16227 -0.172862,-0.16581 -0.172862,-0.52564 v -1.23825 h 0.313973 v 1.21708 q 0,0.45156 0.419806,0.45156 0.313972,0 0.433917,-0.17639 0.123472,-0.17639 0.123472,-0.508 v -0.98425 z m 1.50989,-0.0353 q 0.338667,0 0.511529,0.1658 0.172861,0.16581 0.172861,0.52917 v 1.2312 h -0.306917 v -1.21003 q 0,-0.45509 -0.423334,-0.45509 -0.313972,0 -0.433917,0.17639 -0.119944,0.17639 -0.119944,0.508 v 0.98073 h -0.310445 v -1.89089 h 0.250473 l 0.04586,0.25752 h 0.01764 q 0.09172,-0.14816 0.254,-0.21872 0.162278,-0.0741 0.342194,-0.0741 z m 2.945697,1.96144 q -0.254,0 -0.448028,-0.1023 -0.194027,-0.10231 -0.306916,-0.3175 -0.109362,-0.2152 -0.109362,-0.55033 0,-0.34926 0.112889,-0.56798 0.116417,-0.21872 0.317501,-0.32103 0.201083,-0.1023 0.455083,-0.1023 0.141111,0 0.275167,0.0317 0.137583,0.0282 0.22225,0.0705 l -0.09525,0.25753 q -0.08467,-0.0317 -0.197556,-0.06 -0.112889,-0.0282 -0.211666,-0.0282 -0.55739,0 -0.55739,0.71614 0,0.34219 0.134056,0.52564 0.137583,0.17991 0.405695,0.17991 0.151694,0 0.271639,-0.0318 0.119944,-0.0317 0.218722,-0.0776 v 0.27517 q -0.09525,0.0494 -0.211667,0.0741 -0.112889,0.0282 -0.275167,0.0282 z m 2.578806,-0.98425 q 0,0.4692 -0.239889,0.72673 -0.236361,0.25752 -0.642056,0.25752 -0.250472,0 -0.448028,-0.11288 -0.194028,-0.11642 -0.306917,-0.33514 -0.112889,-0.22225 -0.112889,-0.53623 0,-0.46919 0.232834,-0.72319 0.236361,-0.254 0.645583,-0.254 0.254,0 0.451556,0.11642 0.197556,0.11288 0.306917,0.33161 0.112889,0.21519 0.112889,0.52916 z m -1.428751,0 q 0,0.33514 0.130528,0.5327 0.134056,0.19403 0.423333,0.19403 0.285751,0 0.419806,-0.19403 0.134056,-0.19756 0.134056,-0.5327 0,-0.33514 -0.134056,-0.52564 -0.134055,-0.1905 -0.423333,-0.1905 -0.289278,0 -0.419806,0.1905 -0.130528,0.1905 -0.130528,0.52564 z m 2.829279,-0.97719 q 0.338667,0 0.511528,0.1658 0.172861,0.16581 0.172861,0.52917 v 1.2312 h -0.306917 v -1.21003 q 0,-0.45509 -0.423333,-0.45509 -0.313973,0 -0.433917,0.17639 -0.119945,0.17639 -0.119945,0.508 v 0.98073 h -0.310445 v -1.89089 h 0.250473 l 0.04586,0.25752 h 0.01764 q 0.09172,-0.14816 0.254,-0.21872 0.162278,-0.0741 0.342195,-0.0741 z m 1.901473,1.70744 q 0.07056,0 0.144639,-0.0106 0.07408,-0.0106 0.119945,-0.0282 v 0.23636 q -0.04939,0.0247 -0.141112,0.0388 -0.09172,0.0176 -0.176389,0.0176 -0.148166,0 -0.275166,-0.0494 -0.123473,-0.0529 -0.201084,-0.17992 -0.07761,-0.127 -0.07761,-0.35631 v -1.10066 H 88.50733 v -0.14817 l 0.271639,-0.12347 0.123472,-0.40217 h 0.183445 v 0.43392 h 0.546806 v 0.23989 h -0.546806 v 1.09361 q 0,0.17286 0.08114,0.25753 0.08467,0.0811 0.215194,0.0811 z m 1.524001,-1.70744 q 0.05292,0 0.112889,0.007 0.05997,0.004 0.109361,0.0141 l -0.03881,0.28575 q -0.04586,-0.0106 -0.102305,-0.0176 -0.05644,-0.007 -0.102306,-0.007 -0.144639,0 -0.271639,0.0811 -0.127,0.0776 -0.204611,0.22225 -0.07408,0.14111 -0.07408,0.33161 v 1.00895 h -0.310444 v -1.89089 h 0.254 l 0.03528,0.34572 h 0.01411 q 0.08819,-0.15522 0.232833,-0.26811 0.148167,-0.11289 0.345723,-0.11289 z m 2.148417,0.97719 q 0,0.4692 -0.239889,0.72673 -0.236362,0.25752 -0.642056,0.25752 -0.250473,0 -0.448028,-0.11288 -0.194028,-0.11642 -0.306917,-0.33514 -0.112889,-0.22225 -0.112889,-0.53623 0,-0.46919 0.232833,-0.72319 0.236361,-0.254 0.645584,-0.254 0.254,0 0.451556,0.11642 0.197555,0.11288 0.306917,0.33161 0.112889,0.21519 0.112889,0.52916 z m -1.428751,0 q 0,0.33514 0.130528,0.5327 0.134055,0.19403 0.423333,0.19403 0.28575,0 0.419806,-0.19403 0.134056,-0.19756 0.134056,-0.5327 0,-0.33514 -0.134056,-0.52564 -0.134056,-0.1905 -0.423334,-0.1905 -0.289278,0 -0.419805,0.1905 -0.130528,0.1905 -0.130528,0.52564 z m 2.229556,0.94898 h -0.310445 v -2.68112 h 0.310445 z"
         id="path12" />
      <path
         d="m 73.718878,138.66107 q 0.186972,0 0.335139,0.0706 0.151695,0.0706 0.257528,0.21519 h 0.01764 l 0.04233,-0.25047 h 0.246945 v 1.92264 q 0,0.4057 -0.208139,0.61031 -0.204611,0.20461 -0.638528,0.20461 -0.416278,0 -0.680862,-0.11995 v -0.28575 q 0.278695,0.14817 0.698501,0.14817 0.243417,0 0.381,-0.14464 0.141111,-0.14111 0.141111,-0.38805 v -0.0741 q 0,-0.0423 0.0035,-0.11994 0.0035,-0.0811 0.0071,-0.11289 h -0.01411 q -0.1905,0.28575 -0.585611,0.28575 -0.366889,0 -0.575028,-0.25753 -0.204612,-0.25753 -0.204612,-0.71967 0,-0.45155 0.204612,-0.71613 0.208139,-0.26812 0.5715,-0.26812 z m 0.04233,0.26106 q -0.236361,0 -0.366889,0.1905 -0.130528,0.18697 -0.130528,0.53622 0,0.34925 0.127001,0.53622 0.127,0.18345 0.377472,0.18345 0.28575,0 0.416278,-0.1517 0.130528,-0.15522 0.130528,-0.49741 v -0.0741 q 0,-0.38452 -0.134056,-0.55386 -0.134055,-0.16933 -0.419806,-0.16933 z m 1.767418,1.66511 h -0.310445 v -2.68111 h 0.310445 z m 2.243665,-0.94897 q 0,0.46919 -0.239889,0.72672 -0.236361,0.25753 -0.642056,0.25753 -0.250472,0 -0.448028,-0.11289 -0.194027,-0.11642 -0.306916,-0.33514 -0.112889,-0.22225 -0.112889,-0.53622 0,-0.4692 0.232833,-0.7232 0.236361,-0.254 0.645584,-0.254 0.254,0 0.451556,0.11642 0.197555,0.11289 0.306917,0.33161 0.112888,0.2152 0.112888,0.52917 z m -1.42875,0 q 0,0.33514 0.130527,0.53269 0.134056,0.19403 0.423334,0.19403 0.28575,0 0.419806,-0.19403 0.134056,-0.19755 0.134056,-0.53269 0,-0.33514 -0.134056,-0.52564 -0.134056,-0.1905 -0.423334,-0.1905 -0.289278,0 -0.419806,0.1905 -0.130527,0.1905 -0.130527,0.52564 z m 2.229555,-1.73214 v 0.65264 q 0,0.11994 -0.0071,0.22578 -0.0035,0.1023 -0.01058,0.16227 h 0.01764 q 0.08114,-0.11994 0.22225,-0.20108 0.141111,-0.0811 0.363362,-0.0811 0.352778,0 0.564444,0.24695 0.215195,0.24341 0.215195,0.73025 0,0.48683 -0.215195,0.73378 -0.215194,0.24694 -0.564444,0.24694 -0.222251,0 -0.363362,-0.0811 -0.141111,-0.0811 -0.22225,-0.19403 h -0.02469 l -0.0635,0.23989 h -0.222251 v -2.68111 z m 0.532695,1.016 q -0.303389,0 -0.419806,0.17286 -0.112889,0.17286 -0.112889,0.53622 v 0.0141 q 0,0.34925 0.112889,0.53623 0.116417,0.18344 0.426861,0.18344 0.254001,0 0.377473,-0.18697 0.127,-0.18697 0.127,-0.53975 0,-0.71614 -0.511528,-0.71614 z m 2.042584,-0.25753 q 0.345722,0 0.511528,0.1517 0.165805,0.15169 0.165805,0.4833 v 1.28764 H 81.59993 l -0.05997,-0.26811 h -0.01411 q -0.123472,0.15522 -0.261056,0.22931 -0.137583,0.0741 -0.373944,0.0741 -0.257528,0 -0.426862,-0.13406 -0.169333,-0.13758 -0.169333,-0.42686 0,-0.28222 0.22225,-0.43391 0.22225,-0.15523 0.684389,-0.16934 l 0.321028,-0.0106 v -0.11289 q 0,-0.23636 -0.102305,-0.32808 -0.102306,-0.0917 -0.289278,-0.0917 -0.148167,0 -0.282223,0.0459 -0.134055,0.0423 -0.250472,0.0988 l -0.09525,-0.23283 q 0.123472,-0.067 0.292806,-0.11289 0.169333,-0.0494 0.352778,-0.0494 z m 0.370417,0.99836 -0.278695,0.0106 q -0.352778,0.0141 -0.490362,0.11289 -0.134055,0.0988 -0.134055,0.27869 0,0.15875 0.09525,0.23283 0.09878,0.0741 0.250472,0.0741 0.236362,0 0.395112,-0.13053 0.162278,-0.13406 0.162278,-0.40922 z m 1.202976,0.92428 h -0.310445 v -2.68111 h 0.310445 z m 2.748139,-0.52211 q 0,0.27517 -0.204611,0.41628 -0.204611,0.14111 -0.550334,0.14111 -0.197556,0 -0.342194,-0.0318 -0.141112,-0.0317 -0.250473,-0.0882 v -0.28223 q 0.112889,0.0565 0.271639,0.10584 0.162278,0.0459 0.328084,0.0459 0.236361,0 0.342194,-0.0741 0.105834,-0.0776 0.105834,-0.20461 0,-0.0705 -0.03881,-0.127 -0.0388,-0.0564 -0.141111,-0.11289 -0.09878,-0.0564 -0.28575,-0.127 -0.183445,-0.0705 -0.313973,-0.14111 -0.130527,-0.0705 -0.201083,-0.16933 -0.07056,-0.0988 -0.07056,-0.254 0,-0.23989 0.194028,-0.37042 0.197556,-0.13053 0.515056,-0.13053 0.172861,0 0.321028,0.0353 0.151695,0.0353 0.282223,0.0917 l -0.105834,0.24695 q -0.119944,-0.0494 -0.250472,-0.0847 -0.130528,-0.0353 -0.268112,-0.0353 -0.1905,0 -0.292805,0.0635 -0.09878,0.06 -0.09878,0.16581 0,0.0811 0.04586,0.13406 0.04586,0.0529 0.151695,0.10583 0.109361,0.0529 0.289278,0.11994 0.179916,0.067 0.306916,0.13759 0.127,0.0705 0.194028,0.17286 0.06703,0.0988 0.06703,0.25047 z m 1.188862,-1.40406 q 0.239889,0 0.416278,0.10584 0.176389,0.10583 0.268112,0.29986 0.09525,0.1905 0.09525,0.44803 v 0.18697 h -1.294696 q 0.0071,0.32103 0.162278,0.49036 0.15875,0.16581 0.440973,0.16581 0.179917,0 0.3175,-0.0318 0.141111,-0.0353 0.289278,-0.0988 v 0.27164 q -0.144639,0.0635 -0.28575,0.0917 -0.141111,0.0318 -0.335139,0.0318 -0.271639,0 -0.476251,-0.10936 -0.204611,-0.10936 -0.321028,-0.32456 -0.112889,-0.21519 -0.112889,-0.53269 0,-0.31045 0.102306,-0.5327 0.105833,-0.22225 0.292806,-0.34219 0.1905,-0.11995 0.440972,-0.11995 z m -0.0035,0.254 q -0.22225,0 -0.352778,0.14464 -0.127,0.14111 -0.151694,0.39511 h 0.963084 q -0.0035,-0.23988 -0.112889,-0.38805 -0.109361,-0.1517 -0.345723,-0.1517 z m 1.894415,1.45345 q 0.07056,0 0.144639,-0.0106 0.07408,-0.0106 0.119945,-0.0282 v 0.23637 q -0.04939,0.0247 -0.141111,0.0388 -0.09172,0.0176 -0.176389,0.0176 -0.148167,0 -0.275167,-0.0494 -0.123472,-0.0529 -0.201084,-0.17992 -0.07761,-0.127 -0.07761,-0.3563 V 138.9362 H 87.67477 v -0.14817 l 0.271639,-0.12347 0.123472,-0.40217 h 0.183445 v 0.43392 h 0.546806 v 0.23989 h -0.546806 v 1.09361 q 0,0.17286 0.08114,0.25753 0.08467,0.0811 0.215194,0.0811 z m 1.27353,0 q 0.07055,0 0.144638,-0.0106 0.07408,-0.0106 0.119945,-0.0282 v 0.23637 q -0.04939,0.0247 -0.141111,0.0388 -0.09172,0.0176 -0.176389,0.0176 -0.148167,0 -0.275167,-0.0494 -0.123472,-0.0529 -0.201083,-0.17992 -0.07761,-0.127 -0.07761,-0.3563 v -1.10067 h -0.268111 v -0.14817 l 0.271639,-0.12347 0.123472,-0.40217 h 0.183445 v 0.43392 h 0.546806 v 0.23989 h -0.546806 v 1.09361 q 0,0.17286 0.08114,0.25753 0.08467,0.0811 0.215195,0.0811 z m 0.800806,-2.38125 q 0.07056,0 0.123472,0.0494 0.05644,0.0459 0.05644,0.14816 0,0.10231 -0.05644,0.1517 -0.05292,0.0459 -0.123472,0.0459 -0.07761,0 -0.130528,-0.0459 -0.05292,-0.0494 -0.05292,-0.1517 0,-0.1023 0.05292,-0.14816 0.05292,-0.0494 0.130528,-0.0494 z m 0.151695,0.70908 v 1.89089 H 90.46527 v -1.89089 z m 1.509886,-0.0353 q 0.338667,0 0.511528,0.16581 0.172861,0.16581 0.172861,0.52917 v 1.23119 h -0.306916 v -1.21003 q 0,-0.45508 -0.423334,-0.45508 -0.313972,0 -0.433917,0.17639 -0.119945,0.17639 -0.119945,0.508 v 0.98072 h -0.310444 v -1.89089 h 0.250472 l 0.04586,0.25753 h 0.01764 q 0.09172,-0.14817 0.254,-0.21872 0.162278,-0.0741 0.342195,-0.0741 z m 1.940279,0 q 0.186973,0 0.335139,0.0706 0.151695,0.0706 0.257528,0.21519 h 0.01764 l 0.04233,-0.25047 h 0.246945 v 1.92264 q 0,0.4057 -0.208139,0.61031 -0.204611,0.20461 -0.638528,0.20461 -0.416278,0 -0.680862,-0.11995 v -0.28575 q 0.278695,0.14817 0.698501,0.14817 0.243417,0 0.381,-0.14464 0.141111,-0.14111 0.141111,-0.38805 v -0.0741 q 0,-0.0423 0.0035,-0.11994 0.0035,-0.0811 0.0071,-0.11289 h -0.01411 q -0.1905,0.28575 -0.585611,0.28575 -0.366889,0 -0.575028,-0.25753 -0.204611,-0.25753 -0.204611,-0.71967 0,-0.45155 0.204611,-0.71613 0.208139,-0.26812 0.5715,-0.26812 z m 0.04233,0.26106 q -0.236362,0 -0.36689,0.1905 -0.130527,0.18697 -0.130527,0.53622 0,0.34925 0.127,0.53622 0.127,0.18345 0.377472,0.18345 0.28575,0 0.416278,-0.1517 0.130528,-0.15522 0.130528,-0.49741 v -0.0741 q 0,-0.38452 -0.134056,-0.55386 -0.134055,-0.16933 -0.419805,-0.16933 z m 2.688167,1.143 q 0,0.27517 -0.204611,0.41628 -0.204611,0.14111 -0.550333,0.14111 -0.197556,0 -0.342195,-0.0318 -0.141111,-0.0317 -0.250473,-0.0882 v -0.28223 q 0.112889,0.0565 0.27164,0.10584 0.162277,0.0459 0.328083,0.0459 0.236361,0 0.342195,-0.0741 0.105833,-0.0776 0.105833,-0.20461 0,-0.0705 -0.03881,-0.127 -0.03881,-0.0564 -0.141112,-0.11289 -0.09878,-0.0564 -0.28575,-0.127 -0.183444,-0.0705 -0.313972,-0.14111 -0.130528,-0.0705 -0.201084,-0.16933 -0.07055,-0.0988 -0.07055,-0.254 0,-0.23989 0.194028,-0.37042 0.197555,-0.13053 0.515056,-0.13053 0.172861,0 0.321027,0.0353 0.151695,0.0353 0.282223,0.0917 l -0.105834,0.24695 q -0.119944,-0.0494 -0.250472,-0.0847 -0.130528,-0.0353 -0.268111,-0.0353 -0.1905,0 -0.292806,0.0635 -0.09878,0.06 -0.09878,0.16581 0,0.0811 0.04586,0.13406 0.04586,0.0529 0.151695,0.10583 0.109361,0.0529 0.289278,0.11994 0.179917,0.067 0.306917,0.13759 0.127,0.0705 0.194028,0.17286 0.06703,0.0988 0.06703,0.25047 z"
         id="path13" />
    </g>
    <g
       id="text140-8-7"
       style="font-size:3.52778px;line-height:1.25;font-family:Sans;-inkscape-font-specification:Sans;text-align:center;text-anchor:middle;fill:#344512;stroke-width:0.264583"
       aria-label="hardware sync &#10;settings">
      <path
         d="m 108.06077,133.49641 v 0.78669 q 0,0.14111 -0.0176,0.26459 h 0.0212 q 0.0917,-0.14464 0.24695,-0.21873 0.15875,-0.0741 0.34219,-0.0741 0.3422,0 0.51506,0.16581 0.17639,0.16227 0.17639,0.52564 v 1.23119 h -0.30692 v -1.21003 q 0,-0.45508 -0.42333,-0.45508 -0.3175,0 -0.43745,0.17992 -0.11641,0.17638 -0.11641,0.508 v 0.97719 h -0.31045 v -2.68111 z m 2.58586,0.75847 q 0.34572,0 0.51153,0.1517 0.1658,0.15169 0.1658,0.4833 v 1.28764 h -0.22578 l -0.06,-0.26811 h -0.0141 q -0.12347,0.15522 -0.26105,0.22931 -0.13759,0.0741 -0.37395,0.0741 -0.25753,0 -0.42686,-0.13406 -0.16933,-0.13758 -0.16933,-0.42686 0,-0.28222 0.22225,-0.43392 0.22225,-0.15522 0.68439,-0.16933 l 0.32102,-0.0106 v -0.11289 q 0,-0.23636 -0.1023,-0.32808 -0.10231,-0.0917 -0.28928,-0.0917 -0.14817,0 -0.28222,0.0459 -0.13406,0.0423 -0.25048,0.0988 l -0.0952,-0.23283 q 0.12348,-0.067 0.29281,-0.11289 0.16933,-0.0494 0.35278,-0.0494 z m 0.37042,0.99836 -0.2787,0.0106 q -0.35278,0.0141 -0.49036,0.11288 -0.13406,0.0988 -0.13406,0.2787 0,0.15875 0.0953,0.23283 0.0988,0.0741 0.25048,0.0741 0.23636,0 0.39511,-0.13053 0.16228,-0.13406 0.16228,-0.40922 z m 1.77447,-1.00189 q 0.0529,0 0.11289,0.007 0.06,0.004 0.10936,0.0141 l -0.0388,0.28575 q -0.0459,-0.0106 -0.10231,-0.0176 -0.0564,-0.007 -0.1023,-0.007 -0.14464,0 -0.27164,0.0811 -0.127,0.0776 -0.20462,0.22225 -0.0741,0.14112 -0.0741,0.33162 v 1.00894 h -0.31044 v -1.89089 h 0.254 l 0.0353,0.34572 h 0.0141 q 0.0882,-0.15522 0.23283,-0.26811 0.14817,-0.11289 0.34572,-0.11289 z m 1.17475,1.96145 q -0.35278,0 -0.56444,-0.24342 -0.21167,-0.24694 -0.21167,-0.73378 0,-0.48683 0.21167,-0.73377 0.21519,-0.25048 0.56797,-0.25048 0.21872,0 0.3563,0.0811 0.14112,0.0811 0.22931,0.19756 h 0.0212 q -0.007,-0.0459 -0.0141,-0.13406 -0.007,-0.0917 -0.007,-0.14464 v -0.75494 h 0.31045 v 2.68111 h -0.25048 l -0.0459,-0.254 h -0.0141 q -0.0847,0.11995 -0.22578,0.20461 -0.14111,0.0847 -0.36336,0.0847 z m 0.0494,-0.25753 q 0.29986,0 0.41981,-0.16228 0.12347,-0.1658 0.12347,-0.49741 v -0.0565 q 0,-0.35278 -0.11642,-0.53975 -0.11642,-0.1905 -0.43039,-0.1905 -0.25047,0 -0.37747,0.20108 -0.12347,0.19756 -0.12347,0.5327 0,0.33867 0.12347,0.52564 0.127,0.18697 0.381,0.18697 z m 2.99508,0.21872 -0.32455,-1.06539 q -0.0459,-0.14464 -0.0811,-0.28222 -0.0353,-0.13758 -0.0494,-0.21872 h -0.0141 q -0.0141,0.0811 -0.0459,0.21872 -0.0318,0.13758 -0.0811,0.28575 l -0.33867,1.06186 h -0.35278 l -0.51858,-1.89089 h 0.32103 l 0.26105,1.00895 q 0.0388,0.15169 0.0741,0.30691 0.0353,0.15523 0.0494,0.25753 h 0.0141 q 0.0106,-0.06 0.0318,-0.14816 0.0212,-0.0882 0.0459,-0.18345 0.0247,-0.0988 0.0494,-0.17639 l 0.33514,-1.06539 h 0.33866 l 0.32456,1.06539 q 0.0353,0.12347 0.0741,0.26459 0.0388,0.14111 0.0529,0.23988 h 0.0141 q 0.0106,-0.0882 0.0459,-0.24341 0.0388,-0.15522 0.0811,-0.3175 l 0.26458,-1.00895 h 0.31751 l -0.52564,1.89089 z m 1.94381,-1.91911 q 0.34572,0 0.51153,0.1517 0.1658,0.15169 0.1658,0.4833 v 1.28764 h -0.22578 l -0.06,-0.26811 h -0.0141 q -0.12347,0.15522 -0.26105,0.22931 -0.13759,0.0741 -0.37395,0.0741 -0.25753,0 -0.42686,-0.13406 -0.16933,-0.13758 -0.16933,-0.42686 0,-0.28222 0.22225,-0.43392 0.22225,-0.15522 0.68439,-0.16933 l 0.32102,-0.0106 v -0.11289 q 0,-0.23636 -0.1023,-0.32808 -0.10231,-0.0917 -0.28928,-0.0917 -0.14817,0 -0.28222,0.0459 -0.13406,0.0423 -0.25047,0.0988 l -0.0952,-0.23283 q 0.12347,-0.067 0.2928,-0.11289 0.16933,-0.0494 0.35278,-0.0494 z m 0.37042,0.99836 -0.2787,0.0106 q -0.35278,0.0141 -0.49036,0.11288 -0.13406,0.0988 -0.13406,0.2787 0,0.15875 0.0952,0.23283 0.0988,0.0741 0.25048,0.0741 0.23636,0 0.39511,-0.13053 0.16228,-0.13406 0.16228,-0.40922 z m 1.77447,-1.00189 q 0.0529,0 0.11289,0.007 0.06,0.004 0.10936,0.0141 l -0.0388,0.28575 q -0.0459,-0.0106 -0.10231,-0.0176 -0.0564,-0.007 -0.1023,-0.007 -0.14464,0 -0.27164,0.0811 -0.127,0.0776 -0.20461,0.22225 -0.0741,0.14112 -0.0741,0.33162 v 1.00894 h -0.31044 v -1.89089 h 0.254 l 0.0353,0.34572 h 0.0141 q 0.0882,-0.15522 0.23283,-0.26811 0.14817,-0.11289 0.34572,-0.11289 z m 1.23472,0 q 0.23989,0 0.41628,0.10584 0.17639,0.10583 0.26811,0.29986 0.0952,0.1905 0.0952,0.44803 v 0.18697 h -1.29469 q 0.007,0.32103 0.16228,0.49036 0.15875,0.16581 0.44097,0.16581 0.17991,0 0.3175,-0.0317 0.14111,-0.0353 0.28928,-0.0988 v 0.27164 q -0.14464,0.0635 -0.28575,0.0917 -0.14112,0.0317 -0.33514,0.0317 -0.27164,0 -0.47625,-0.10936 -0.20461,-0.10936 -0.32103,-0.32456 -0.11289,-0.21519 -0.11289,-0.53269 0,-0.31045 0.10231,-0.5327 0.10583,-0.22225 0.2928,-0.34219 0.1905,-0.11995 0.44097,-0.11995 z m -0.004,0.254 q -0.22225,0 -0.35278,0.14464 -0.127,0.14111 -0.1517,0.39511 h 0.96309 q -0.004,-0.23989 -0.11289,-0.38805 -0.10936,-0.1517 -0.34572,-0.1517 z m 3.41136,1.15006 q 0,0.27517 -0.20461,0.41628 -0.20462,0.14111 -0.55034,0.14111 -0.19755,0 -0.34219,-0.0317 -0.14111,-0.0317 -0.25047,-0.0882 v -0.28222 q 0.11288,0.0564 0.27163,0.10584 0.16228,0.0459 0.32809,0.0459 0.23636,0 0.34219,-0.0741 0.10584,-0.0776 0.10584,-0.20461 0,-0.0705 -0.0388,-0.127 -0.0388,-0.0564 -0.14111,-0.11289 -0.0988,-0.0564 -0.28575,-0.127 -0.18345,-0.0705 -0.31397,-0.14111 -0.13053,-0.0706 -0.20109,-0.16933 -0.0705,-0.0988 -0.0705,-0.254 0,-0.23989 0.19403,-0.37042 0.19755,-0.13053 0.51505,-0.13053 0.17286,0 0.32103,0.0353 0.15169,0.0353 0.28222,0.0917 l -0.10583,0.24695 q -0.11995,-0.0494 -0.25047,-0.0847 -0.13053,-0.0353 -0.26812,-0.0353 -0.1905,0 -0.2928,0.0635 -0.0988,0.06 -0.0988,0.16581 0,0.0811 0.0459,0.13405 0.0459,0.0529 0.1517,0.10584 0.10936,0.0529 0.28927,0.11994 0.17992,0.067 0.30692,0.13759 0.127,0.0705 0.19403,0.17286 0.067,0.0988 0.067,0.25047 z m 0.16228,-1.36878 h 0.33161 l 0.40922,1.07597 q 0.0529,0.14464 0.0952,0.27164 0.0423,0.127 0.0635,0.24342 h 0.0141 q 0.0212,-0.0882 0.067,-0.22931 0.0459,-0.14464 0.0952,-0.28927 l 0.38453,-1.07245 h 0.33514 l -0.81492,2.15195 q -0.10231,0.26811 -0.25753,0.42686 -0.15522,0.15875 -0.43039,0.15875 -0.0847,0 -0.14816,-0.0106 -0.0635,-0.007 -0.10937,-0.0176 v -0.24695 q 0.0388,0.007 0.0917,0.0141 0.0564,0.007 0.11641,0.007 0.16228,0 0.26106,-0.0917 0.0988,-0.0917 0.15875,-0.24342 l 0.0988,-0.25047 z m 3.00566,-0.0353 q 0.33867,0 0.51153,0.16581 0.17286,0.1658 0.17286,0.52917 v 1.23119 h -0.30691 v -1.21003 q 0,-0.45508 -0.42334,-0.45508 -0.31397,0 -0.43391,0.17639 -0.11995,0.17639 -0.11995,0.508 v 0.98072 h -0.31044 v -1.89089 h 0.25047 l 0.0459,0.25753 h 0.0176 q 0.0917,-0.14817 0.254,-0.21872 0.16228,-0.0741 0.34219,-0.0741 z m 2.02848,1.96145 q -0.254,0 -0.44803,-0.10231 -0.19403,-0.1023 -0.30692,-0.3175 -0.10936,-0.21519 -0.10936,-0.55033 0,-0.34925 0.11289,-0.56797 0.11642,-0.21873 0.3175,-0.32103 0.20108,-0.10231 0.45509,-0.10231 0.14111,0 0.27516,0.0317 0.13759,0.0282 0.22225,0.0706 l -0.0952,0.25753 q -0.0847,-0.0317 -0.19755,-0.06 -0.11289,-0.0282 -0.21167,-0.0282 -0.55739,0 -0.55739,0.71614 0,0.3422 0.13406,0.52564 0.13758,0.17992 0.40569,0.17992 0.1517,0 0.27164,-0.0318 0.11994,-0.0317 0.21872,-0.0776 v 0.27516 q -0.0952,0.0494 -0.21166,0.0741 -0.11289,0.0282 -0.27517,0.0282 z"
         id="path14" />
      <path
         d="m 114.91348,140.06513 q 0,0.27517 -0.20461,0.41628 -0.20461,0.14111 -0.55033,0.14111 -0.19756,0 -0.3422,-0.0318 -0.14111,-0.0317 -0.25047,-0.0882 v -0.28222 q 0.11289,0.0564 0.27164,0.10583 0.16228,0.0459 0.32808,0.0459 0.23636,0 0.3422,-0.0741 0.10583,-0.0776 0.10583,-0.20461 0,-0.0706 -0.0388,-0.127 -0.0388,-0.0565 -0.14111,-0.11289 -0.0988,-0.0564 -0.28575,-0.127 -0.18344,-0.0706 -0.31397,-0.14111 -0.13053,-0.0706 -0.20108,-0.16934 -0.0706,-0.0988 -0.0706,-0.254 0,-0.23989 0.19403,-0.37041 0.19755,-0.13053 0.51505,-0.13053 0.17287,0 0.32103,0.0353 0.1517,0.0353 0.28222,0.0917 l -0.10583,0.24694 q -0.11994,-0.0494 -0.25047,-0.0847 -0.13053,-0.0353 -0.26811,-0.0353 -0.1905,0 -0.29281,0.0635 -0.0988,0.06 -0.0988,0.1658 0,0.0811 0.0459,0.13406 0.0459,0.0529 0.15169,0.10583 0.10936,0.0529 0.28928,0.11995 0.17991,0.067 0.30691,0.13758 0.127,0.0706 0.19403,0.17286 0.067,0.0988 0.067,0.25047 z m 1.18886,-1.40405 q 0.23989,0 0.41628,0.10583 0.17639,0.10583 0.26811,0.29986 0.0952,0.1905 0.0952,0.44803 v 0.18697 h -1.29469 q 0.007,0.32103 0.16227,0.49036 0.15875,0.16581 0.44098,0.16581 0.17991,0 0.3175,-0.0318 0.14111,-0.0353 0.28927,-0.0988 v 0.27164 q -0.14463,0.0635 -0.28575,0.0917 -0.14111,0.0318 -0.33513,0.0318 -0.27164,0 -0.47625,-0.10936 -0.20462,-0.10936 -0.32103,-0.32455 -0.11289,-0.2152 -0.11289,-0.5327 0,-0.31044 0.1023,-0.53269 0.10584,-0.22225 0.29281,-0.3422 0.1905,-0.11994 0.44097,-0.11994 z m -0.004,0.254 q -0.22225,0 -0.35277,0.14464 -0.127,0.14111 -0.1517,0.39511 h 0.96309 q -0.004,-0.23989 -0.11289,-0.38806 -0.10936,-0.15169 -0.34573,-0.15169 z m 1.89442,1.45344 q 0.0706,0 0.14464,-0.0106 0.0741,-0.0106 0.11994,-0.0282 v 0.23636 q -0.0494,0.0247 -0.14111,0.0388 -0.0917,0.0176 -0.17639,0.0176 -0.14816,0 -0.27516,-0.0494 -0.12348,-0.0529 -0.20109,-0.17991 -0.0776,-0.127 -0.0776,-0.35631 v -1.10067 h -0.26811 v -0.14816 l 0.27164,-0.12347 0.12347,-0.40217 h 0.18345 v 0.43392 h 0.5468 v 0.23988 h -0.5468 v 1.09362 q 0,0.17286 0.0811,0.25752 0.0847,0.0811 0.2152,0.0811 z m 1.27353,0 q 0.0705,0 0.14464,-0.0106 0.0741,-0.0106 0.11994,-0.0282 v 0.23636 q -0.0494,0.0247 -0.14111,0.0388 -0.0917,0.0176 -0.17639,0.0176 -0.14816,0 -0.27517,-0.0494 -0.12347,-0.0529 -0.20108,-0.17991 -0.0776,-0.127 -0.0776,-0.35631 v -1.10067 h -0.26811 v -0.14816 l 0.27164,-0.12347 0.12347,-0.40217 h 0.18345 v 0.43392 h 0.5468 v 0.23988 h -0.5468 v 1.09362 q 0,0.17286 0.0811,0.25752 0.0847,0.0811 0.2152,0.0811 z m 0.8008,-2.38125 q 0.0706,0 0.12348,0.0494 0.0564,0.0459 0.0564,0.14817 0,0.1023 -0.0564,0.15169 -0.0529,0.0459 -0.12348,0.0459 -0.0776,0 -0.13052,-0.0459 -0.0529,-0.0494 -0.0529,-0.15169 0,-0.10231 0.0529,-0.14817 0.0529,-0.0494 0.13052,-0.0494 z m 0.1517,0.70909 v 1.89089 h -0.31045 v -1.89089 z m 1.50989,-0.0353 q 0.33866,0 0.51153,0.1658 0.17286,0.16581 0.17286,0.52917 v 1.2312 h -0.30692 v -1.21003 q 0,-0.45509 -0.42333,-0.45509 -0.31398,0 -0.43392,0.17639 -0.11995,0.17639 -0.11995,0.508 v 0.98073 h -0.31044 v -1.89089 h 0.25047 l 0.0459,0.25752 h 0.0176 q 0.0917,-0.14816 0.254,-0.21872 0.16228,-0.0741 0.3422,-0.0741 z m 1.94028,0 q 0.18697,0 0.33514,0.0705 0.15169,0.0706 0.25752,0.2152 h 0.0176 l 0.0423,-0.25047 h 0.24694 v 1.92264 q 0,0.40569 -0.20814,0.6103 -0.20461,0.20461 -0.63853,0.20461 -0.41628,0 -0.68086,-0.11994 v -0.28575 q 0.2787,0.14817 0.6985,0.14817 0.24342,0 0.381,-0.14464 0.14111,-0.14112 0.14111,-0.38806 v -0.0741 q 0,-0.0423 0.004,-0.11995 0.004,-0.0811 0.007,-0.11289 h -0.0141 q -0.1905,0.28575 -0.58562,0.28575 -0.36689,0 -0.57502,-0.25752 -0.20462,-0.25753 -0.20462,-0.71967 0,-0.45156 0.20462,-0.71614 0.20813,-0.26811 0.5715,-0.26811 z m 0.0423,0.26105 q -0.23636,0 -0.36689,0.1905 -0.13053,0.18698 -0.13053,0.53623 0,0.34925 0.127,0.53622 0.127,0.18344 0.37748,0.18344 0.28575,0 0.41627,-0.15169 0.13053,-0.15522 0.13053,-0.49742 v -0.0741 q 0,-0.38453 -0.13405,-0.55386 -0.13406,-0.16934 -0.41981,-0.16934 z m 2.68817,1.143 q 0,0.27517 -0.20461,0.41628 -0.20462,0.14111 -0.55034,0.14111 -0.19755,0 -0.34219,-0.0318 -0.14111,-0.0317 -0.25047,-0.0882 v -0.28222 q 0.11288,0.0564 0.27163,0.10583 0.16228,0.0459 0.32809,0.0459 0.23636,0 0.34219,-0.0741 0.10584,-0.0776 0.10584,-0.20461 0,-0.0706 -0.0388,-0.127 -0.0388,-0.0565 -0.14111,-0.11289 -0.0988,-0.0564 -0.28575,-0.127 -0.18345,-0.0706 -0.31397,-0.14111 -0.13053,-0.0706 -0.20109,-0.16934 -0.0705,-0.0988 -0.0705,-0.254 0,-0.23989 0.19403,-0.37041 0.19755,-0.13053 0.51505,-0.13053 0.17286,0 0.32103,0.0353 0.15169,0.0353 0.28222,0.0917 l -0.10583,0.24694 q -0.11995,-0.0494 -0.25047,-0.0847 -0.13053,-0.0353 -0.26812,-0.0353 -0.1905,0 -0.2928,0.0635 -0.0988,0.06 -0.0988,0.1658 0,0.0811 0.0459,0.13406 0.0459,0.0529 0.1517,0.10583 0.10936,0.0529 0.28927,0.11995 0.17992,0.067 0.30692,0.13758 0.127,0.0706 0.19403,0.17286 0.067,0.0988 0.067,0.25047 z"
         id="path15" />
    </g>
    <path
       d="m 141.17327,139.07031 q 0.34572,0 0.51153,0.15169 0.1658,0.1517 0.1658,0.48331 v 1.28764 h -0.22578 l -0.06,-0.26811 h -0.0141 q -0.12347,0.15522 -0.26106,0.2293 -0.13758,0.0741 -0.37394,0.0741 -0.25753,0 -0.42686,-0.13406 -0.16934,-0.13758 -0.16934,-0.42686 0,-0.28222 0.22226,-0.43392 0.22225,-0.15522 0.68438,-0.16933 l 0.32103,-0.0106 v -0.11289 q 0,-0.23636 -0.1023,-0.32809 -0.10231,-0.0917 -0.28928,-0.0917 -0.14817,0 -0.28222,0.0459 -0.13406,0.0423 -0.25048,0.0988 l -0.0952,-0.23283 q 0.12348,-0.067 0.29281,-0.11289 0.16933,-0.0494 0.35278,-0.0494 z m 0.37041,0.99836 -0.27869,0.0106 q -0.35278,0.0141 -0.49036,0.11288 -0.13406,0.0988 -0.13406,0.2787 0,0.15875 0.0952,0.23283 0.0988,0.0741 0.25048,0.0741 0.23636,0 0.39511,-0.13053 0.16227,-0.13406 0.16227,-0.40922 z m 1.56281,0.95956 q -0.35277,0 -0.56444,-0.24342 -0.21167,-0.24694 -0.21167,-0.73378 0,-0.48683 0.21167,-0.73378 0.21519,-0.25047 0.56797,-0.25047 0.21872,0 0.35631,0.0811 0.14111,0.0811 0.2293,0.19756 h 0.0212 q -0.007,-0.0459 -0.0141,-0.13406 -0.007,-0.0917 -0.007,-0.14464 v -0.75494 h 0.31045 v 2.68111 h -0.25047 l -0.0459,-0.254 h -0.0141 q -0.0847,0.11994 -0.22577,0.20461 -0.14112,0.0847 -0.36337,0.0847 z m 0.0494,-0.25753 q 0.29986,0 0.41981,-0.16228 0.12347,-0.1658 0.12347,-0.49741 v -0.0564 q 0,-0.35278 -0.11642,-0.53975 -0.11641,-0.1905 -0.43038,-0.1905 -0.25048,0 -0.37748,0.20108 -0.12347,0.19756 -0.12347,0.5327 0,0.33867 0.12347,0.52564 0.127,0.18697 0.381,0.18697 z m 2.1202,0.25753 q -0.35278,0 -0.56445,-0.24342 -0.21166,-0.24694 -0.21166,-0.73378 0,-0.48683 0.21166,-0.73378 0.2152,-0.25047 0.56798,-0.25047 0.21872,0 0.3563,0.0811 0.14111,0.0811 0.22931,0.19756 h 0.0212 q -0.007,-0.0459 -0.0141,-0.13406 -0.007,-0.0917 -0.007,-0.14464 v -0.75494 h 0.31044 v 2.68111 h -0.25047 l -0.0459,-0.254 h -0.0141 q -0.0847,0.11994 -0.22578,0.20461 -0.14111,0.0847 -0.36336,0.0847 z m 0.0494,-0.25753 q 0.29986,0 0.4198,-0.16228 0.12348,-0.1658 0.12348,-0.49741 v -0.0564 q 0,-0.35278 -0.11642,-0.53975 -0.11642,-0.1905 -0.43039,-0.1905 -0.25047,0 -0.37747,0.20108 -0.12348,0.19756 -0.12348,0.5327 0,0.33867 0.12348,0.52564 0.127,0.18697 0.381,0.18697 z m 2.52589,-2.37772 q 0.0705,0 0.12347,0.0494 0.0564,0.0459 0.0564,0.14816 0,0.10231 -0.0564,0.1517 -0.0529,0.0459 -0.12347,0.0459 -0.0776,0 -0.13053,-0.0459 -0.0529,-0.0494 -0.0529,-0.1517 0,-0.1023 0.0529,-0.14816 0.0529,-0.0494 0.13053,-0.0494 z m 0.15169,0.70908 v 1.89089 h -0.31044 v -1.89089 z m 1.50989,-0.0353 q 0.33867,0 0.51153,0.16581 0.17286,0.1658 0.17286,0.52917 v 1.23119 h -0.30692 v -1.21003 q 0,-0.45508 -0.42333,-0.45508 -0.31397,0 -0.43392,0.17639 -0.11994,0.17639 -0.11994,0.508 v 0.98072 h -0.31045 v -1.89089 h 0.25047 l 0.0459,0.25753 h 0.0176 q 0.0917,-0.14817 0.25401,-0.21872 0.16227,-0.0741 0.34219,-0.0741 z m 2.5012,1.40406 q 0,0.27517 -0.20462,0.41628 -0.20461,0.14111 -0.55033,0.14111 -0.19755,0 -0.34219,-0.0318 -0.14111,-0.0317 -0.25048,-0.0882 v -0.28222 q 0.11289,0.0565 0.27164,0.10583 0.16228,0.0459 0.32809,0.0459 0.23636,0 0.34219,-0.0741 0.10583,-0.0776 0.10583,-0.20461 0,-0.0705 -0.0388,-0.127 -0.0388,-0.0564 -0.14111,-0.11289 -0.0988,-0.0564 -0.28575,-0.127 -0.18345,-0.0705 -0.31397,-0.14111 -0.13053,-0.0705 -0.20109,-0.16933 -0.0705,-0.0988 -0.0705,-0.254 0,-0.23989 0.19402,-0.37042 0.19756,-0.13053 0.51506,-0.13053 0.17286,0 0.32103,0.0353 0.15169,0.0353 0.28222,0.0917 l -0.10583,0.24695 q -0.11995,-0.0494 -0.25048,-0.0847 -0.13052,-0.0353 -0.26811,-0.0353 -0.1905,0 -0.2928,0.0635 -0.0988,0.06 -0.0988,0.16581 0,0.0811 0.0459,0.13405 0.0459,0.0529 0.1517,0.10584 0.10936,0.0529 0.28927,0.11994 0.17992,0.067 0.30692,0.13759 0.127,0.0706 0.19403,0.17286 0.067,0.0988 0.067,0.25047 z m 1.09008,0.30339 q 0.0706,0 0.14464,-0.0106 0.0741,-0.0106 0.11994,-0.0282 v 0.23636 q -0.0494,0.0247 -0.14111,0.0388 -0.0917,0.0176 -0.17639,0.0176 -0.14816,0 -0.27516,-0.0494 -0.12348,-0.0529 -0.20109,-0.17992 -0.0776,-0.127 -0.0776,-0.3563 v -1.10067 h -0.26811 v -0.14817 l 0.27164,-0.12347 0.12347,-0.40217 h 0.18345 v 0.43392 h 0.5468 v 0.23989 h -0.5468 v 1.09361 q 0,0.17286 0.0811,0.25753 0.0847,0.0811 0.21519,0.0811 z m 1.524,-1.70745 q 0.0529,0 0.11289,0.007 0.06,0.004 0.10936,0.0141 l -0.0388,0.28575 q -0.0459,-0.0106 -0.10231,-0.0176 -0.0564,-0.007 -0.1023,-0.007 -0.14464,0 -0.27164,0.0811 -0.127,0.0776 -0.20462,0.22225 -0.0741,0.14112 -0.0741,0.33162 v 1.00894 h -0.31044 v -1.89089 h 0.254 l 0.0353,0.34572 h 0.0141 q 0.0882,-0.15522 0.23283,-0.26811 0.14817,-0.11289 0.34572,-0.11289 z m 2.15548,0.0353 v 1.89089 h -0.254 l -0.0459,-0.25047 h -0.0141 q -0.0917,0.14816 -0.254,0.21872 -0.16228,0.067 -0.34572,0.067 -0.34219,0 -0.51506,-0.16228 -0.17286,-0.16581 -0.17286,-0.52564 v -1.23825 h 0.31398 v 1.21708 q 0,0.45156 0.4198,0.45156 0.31397,0 0.43392,-0.17639 0.12347,-0.17639 0.12347,-0.508 v -0.98425 z m 1.35819,1.92617 q -0.254,0 -0.44803,-0.10231 -0.19402,-0.1023 -0.30691,-0.3175 -0.10936,-0.21519 -0.10936,-0.55033 0,-0.34925 0.11288,-0.56797 0.11642,-0.21873 0.3175,-0.32103 0.20109,-0.10231 0.45509,-0.10231 0.14111,0 0.27517,0.0318 0.13758,0.0282 0.22225,0.0706 l -0.0952,0.25753 q -0.0847,-0.0318 -0.19756,-0.06 -0.11289,-0.0282 -0.21167,-0.0282 -0.55739,0 -0.55739,0.71614 0,0.3422 0.13406,0.52564 0.13758,0.17992 0.40569,0.17992 0.1517,0 0.27164,-0.0317 0.11995,-0.0318 0.21873,-0.0776 v 0.27516 q -0.0952,0.0494 -0.21167,0.0741 -0.11289,0.0282 -0.27517,0.0282 z m 1.56633,-0.254 q 0.0706,0 0.14464,-0.0106 0.0741,-0.0106 0.11995,-0.0282 v 0.23636 q -0.0494,0.0247 -0.14111,0.0388 -0.0917,0.0176 -0.17639,0.0176 -0.14817,0 -0.27517,-0.0494 -0.12347,-0.0529 -0.20108,-0.17992 -0.0776,-0.127 -0.0776,-0.3563 v -1.10067 h -0.26812 v -0.14817 l 0.27164,-0.12347 0.12348,-0.40217 h 0.18344 v 0.43392 h 0.54681 v 0.23989 h -0.54681 v 1.09361 q 0,0.17286 0.0811,0.25753 0.0847,0.0811 0.21519,0.0811 z m 0.80081,-2.38125 q 0.0706,0 0.12347,0.0494 0.0565,0.0459 0.0565,0.14816 0,0.10231 -0.0565,0.1517 -0.0529,0.0459 -0.12347,0.0459 -0.0776,0 -0.13053,-0.0459 -0.0529,-0.0494 -0.0529,-0.1517 0,-0.1023 0.0529,-0.14816 0.0529,-0.0494 0.13053,-0.0494 z m 0.1517,0.70908 v 1.89089 h -0.31045 v -1.89089 z m 2.24366,0.94192 q 0,0.46919 -0.23989,0.72672 -0.23636,0.25753 -0.64206,0.25753 -0.25047,0 -0.44802,-0.11289 -0.19403,-0.11642 -0.30692,-0.33514 -0.11289,-0.22225 -0.11289,-0.53622 0,-0.4692 0.23283,-0.7232 0.23637,-0.254 0.64559,-0.254 0.254,0 0.45155,0.11642 0.19756,0.11289 0.30692,0.33161 0.11289,0.2152 0.11289,0.52917 z m -1.42875,0 q 0,0.33514 0.13053,0.53269 0.13405,0.19403 0.42333,0.19403 0.28575,0 0.41981,-0.19403 0.13405,-0.19755 0.13405,-0.53269 0,-0.33514 -0.13405,-0.52564 -0.13406,-0.1905 -0.42334,-0.1905 -0.28928,0 -0.4198,0.1905 -0.13053,0.1905 -0.13053,0.52564 z m 2.82928,-0.9772 q 0.33866,0 0.51153,0.16581 0.17286,0.1658 0.17286,0.52917 v 1.23119 h -0.30692 v -1.21003 q 0,-0.45508 -0.42333,-0.45508 -0.31398,0 -0.43392,0.17639 -0.11994,0.17639 -0.11994,0.508 v 0.98072 h -0.31045 v -1.89089 h 0.25047 l 0.0459,0.25753 h 0.0176 q 0.0917,-0.14817 0.254,-0.21872 0.16228,-0.0741 0.3422,-0.0741 z m 2.50119,1.40406 q 0,0.27517 -0.20461,0.41628 -0.20461,0.14111 -0.55033,0.14111 -0.19756,0 -0.3422,-0.0318 -0.14111,-0.0317 -0.25047,-0.0882 v -0.28222 q 0.11289,0.0565 0.27164,0.10583 0.16228,0.0459 0.32808,0.0459 0.23637,0 0.3422,-0.0741 0.10583,-0.0776 0.10583,-0.20461 0,-0.0705 -0.0388,-0.127 -0.0388,-0.0564 -0.14111,-0.11289 -0.0988,-0.0564 -0.28575,-0.127 -0.18345,-0.0705 -0.31398,-0.14111 -0.13052,-0.0705 -0.20108,-0.16933 -0.0706,-0.0988 -0.0706,-0.254 0,-0.23989 0.19403,-0.37042 0.19756,-0.13053 0.51506,-0.13053 0.17286,0 0.32103,0.0353 0.15169,0.0353 0.28222,0.0917 l -0.10584,0.24695 q -0.11994,-0.0494 -0.25047,-0.0847 -0.13053,-0.0353 -0.26811,-0.0353 -0.1905,0 -0.2928,0.0635 -0.0988,0.06 -0.0988,0.16581 0,0.0811 0.0459,0.13405 0.0459,0.0529 0.15169,0.10584 0.10936,0.0529 0.28928,0.11994 0.17992,0.067 0.30692,0.13759 0.127,0.0706 0.19403,0.17286 0.067,0.0988 0.067,0.25047 z"
       id="text140-8-4"
       style="font-size:3.52778px;line-height:1.25;font-family:Sans;-inkscape-font-specification:Sans;text-align:center;text-anchor:middle;fill:#344512;stroke-width:0.264583"
       aria-label="add instructions" />
    <path
       style="fill:none;fill-opacity:1;stroke:#8cc600;stroke-width:0.265;stroke-dasharray:none;stroke-opacity:1;marker-end:url(#ConcaveTriangle)"
       d="m 86.874189,128.16254 c 0,-4.48039 0.659219,-12.25322 1.994686,-15.90783"
       id="path10" />
    <path
       style="fill:none;fill-opacity:1;stroke:#8cc600;stroke-width:0.265;stroke-dasharray:none;stroke-opacity:1;marker-end:url(#ConcaveTriangle-4)"
       d="m 109.92334,132.38563 c -1.63855,-2.51855 -1.07161,-7.53592 3.20721,-9.14688"
       id="path10-4" />
    <path
       style="fill:none;fill-opacity:1;stroke:#8cc600;stroke-width:0.265;stroke-dasharray:none;stroke-opacity:1;marker-end:url(#ConcaveTriangle-4-1)"
       d="m 166.53441,137.04433 c 0.79978,-6.19683 -3.13137,-11.80267 -9.44539,-12.69429"
       id="path10-4-5" />
  </g>
</svg>
