<?xml version="1.0" encoding="UTF-8" standalone="no"?>
<!-- Created with Inkscape (http://www.inkscape.org/) -->

<svg
   width="64.06739mm"
   height="58.279396mm"
   viewBox="0 0 64.06739 58.279397"
   version="1.1"
   id="svg1"
   xmlns="http://www.w3.org/2000/svg"
   xmlns:svg="http://www.w3.org/2000/svg">
  <defs
     id="defs1">
    <marker
       style="overflow:visible"
       id="ConcaveTriangle-5"
       refX="0"
       refY="0"
       orient="auto-start-reverse"
       markerWidth="1"
       markerHeight="1"
       viewBox="0 0 1 1"
       preserveAspectRatio="xMidYMid">
      <path
         d="M -1.4,-2.8 6.3,0 -1.4,2.8 C 0,1.169 0,-1.162 -1.4,-2.8 Z"
         style="fill:context-stroke;fill-rule:evenodd;stroke:none;stroke-width:0.7"
         id="path7-4" />
    </marker>
    <marker
       style="overflow:visible"
       id="ConcaveTriangle-5-4"
       refX="0"
       refY="0"
       orient="auto-start-reverse"
       markerWidth="1"
       markerHeight="1"
       viewBox="0 0 1 1"
       preserveAspectRatio="xMidYMid">
      <path
         d="M -1.4,-2.8 6.3,0 -1.4,2.8 C 0,1.169 0,-1.162 -1.4,-2.8 Z"
         style="fill:context-stroke;fill-rule:evenodd;stroke:none;stroke-width:0.7"
         id="path7-4-8" />
    </marker>
    <marker
       style="overflow:visible"
       id="ConcaveTriangle-8"
       refX="0"
       refY="0"
       orient="auto-start-reverse"
       markerWidth="1"
       markerHeight="1"
       viewBox="0 0 1 1"
       preserveAspectRatio="xMidYMid">
      <path
         d="M -1.4,-2.8 6.3,0 -1.4,2.8 C 0,1.169 0,-1.162 -1.4,-2.8 Z"
         style="fill:context-stroke;fill-rule:evenodd;stroke:none;stroke-width:0.7"
         id="path7-2" />
    </marker>
    <marker
       style="overflow:visible"
       id="ConcaveTriangle-41-4"
       refX="0"
       refY="0"
       orient="auto-start-reverse"
       markerWidth="1"
       markerHeight="1"
       viewBox="0 0 1 1"
       preserveAspectRatio="xMidYMid">
      <path
         d="M -1.4,-2.8 6.3,0 -1.4,2.8 C 0,1.169 0,-1.162 -1.4,-2.8 Z"
         style="fill:context-stroke;fill-rule:evenodd;stroke:none;stroke-width:0.7"
         id="path7-1-5" />
    </marker>
    <marker
       style="overflow:visible"
       id="ConcaveTriangle-8-7"
       refX="0"
       refY="0"
       orient="auto-start-reverse"
       markerWidth="1"
       markerHeight="1"
       viewBox="0 0 1 1"
       preserveAspectRatio="xMidYMid">
      <path
         d="M -1.4,-2.8 6.3,0 -1.4,2.8 C 0,1.169 0,-1.162 -1.4,-2.8 Z"
         style="fill:context-stroke;fill-rule:evenodd;stroke:none;stroke-width:0.7"
         id="path7-2-1" />
    </marker>
  </defs>
  <g
     id="layer2"
     transform="translate(-81.945244,-92.754395)">
    <rect
       style="fill:#ffffff;fill-opacity:1;stroke:none;stroke-width:0.25;stroke-opacity:1"
       id="rect1"
       width="64.06739"
       height="58.279396"
       x="81.945244"
       y="92.754395" />
  </g>
  <g
     id="layer1"
     transform="translate(-81.945244,-92.754395)">
    <g
       id="g12">
      <g
         id="g11"
         transform="translate(33.172138,0.44647598)">
        <rect
           style="display:inline;fill:none;fill-opacity:1;stroke:#ff7c00;stroke-width:0.407786;stroke-dasharray:none;stroke-dashoffset:0;stroke-opacity:1"
           id="rect124-7-9-2-3"
           width="21.050676"
           height="7.0910568"
           x="86.446892"
           y="118.03537"
           ry="1.8024334" />
        <path
           d="m 90.213721,120.84853 q 0.406399,0 0.613832,0.19897 0.207434,0.19896 0.207434,0.635 v 1.47743 h -0.3683 v -1.45203 q 0,-0.5461 -0.508,-0.5461 -0.376766,0 -0.520699,0.21166 -0.143933,0.21167 -0.143933,0.6096 v 1.17687 h -0.372533 v -2.26907 h 0.300566 l 0.05503,0.30904 h 0.02117 q 0.110066,-0.1778 0.3048,-0.26247 0.194733,-0.0889 0.410633,-0.0889 z m 1.468965,2.0828 q 0,-0.15664 0.0762,-0.22014 0.0762,-0.0635 0.182033,-0.0635 0.105833,0 0.186267,0.0635 0.08043,0.0635 0.08043,0.22014 0,0.1524 -0.08043,0.22013 -0.08043,0.0677 -0.186267,0.0677 -0.105833,0 -0.182033,-0.0677 -0.0762,-0.0677 -0.0762,-0.22013 z m 0.999064,-0.74084 v -0.33019 h 1.024466 v 0.33019 z m 3.450166,-1.29963 v 2.26907 h -0.3048 l -0.05503,-0.30057 h -0.01693 q -0.110067,0.1778 -0.3048,0.26247 -0.194733,0.0804 -0.414866,0.0804 -0.410633,0 -0.618066,-0.19473 -0.207433,-0.19897 -0.207433,-0.63077 v -1.4859 h 0.376766 v 1.4605 q 0,0.54187 0.503766,0.54187 0.376766,0 0.5207,-0.21167 0.148166,-0.21167 0.148166,-0.6096 v -1.1811 z m 2.197098,1.64253 q 0,0.3302 -0.245533,0.49954 -0.245533,0.16933 -0.660399,0.16933 -0.237067,0 -0.410633,-0.0381 -0.169334,-0.0381 -0.300567,-0.10583 v -0.33867 q 0.135467,0.0677 0.325967,0.127 0.194733,0.055 0.393699,0.055 0.283633,0 0.410633,-0.0889 0.127,-0.0931 0.127,-0.24553 0,-0.0847 -0.04657,-0.1524 -0.04657,-0.0677 -0.169334,-0.13547 -0.118533,-0.0677 -0.342899,-0.1524 -0.220134,-0.0847 -0.376767,-0.16933 -0.156633,-0.0847 -0.2413,-0.2032 -0.08467,-0.11853 -0.08467,-0.3048 0,-0.28786 0.232833,-0.4445 0.237066,-0.15663 0.618066,-0.15663 0.207433,0 0.385233,0.0423 0.182033,0.0423 0.338667,0.11007 l -0.127,0.29633 q -0.143934,-0.0593 -0.300567,-0.1016 -0.156633,-0.0423 -0.321733,-0.0423 -0.2286,0 -0.351366,0.0762 -0.118533,0.072 -0.118533,0.19897 0,0.0974 0.05503,0.16086 0.05503,0.0635 0.182033,0.127 0.131233,0.0635 0.347133,0.14394 0.2159,0.0804 0.3683,0.16509 0.1524,0.0847 0.232833,0.20744 0.08043,0.11853 0.08043,0.30056 z m 1.608666,-1.68486 q 0.0635,0 0.13547,0.008 0.072,0.004 0.13123,0.0169 l -0.0466,0.3429 q -0.055,-0.0127 -0.12276,-0.0212 -0.06774,-0.008 -0.12277,-0.008 -0.173567,0 -0.325967,0.0974 -0.152399,0.0931 -0.245533,0.2667 -0.0889,0.16934 -0.0889,0.39794 v 1.21073 h -0.372533 v -2.26907 h 0.3048 l 0.04233,0.41487 h 0.01693 q 0.105833,-0.18627 0.279399,-0.32173 0.1778,-0.13547 0.414867,-0.13547 z m 1.06257,2.3114 h -0.37254 v -3.21733 h 0.37254 z m 0.91016,-3.11997 q 0.0847,0 0.14817,0.0593 0.0677,0.055 0.0677,0.1778 0,0.12277 -0.0677,0.18203 -0.0635,0.055 -0.14817,0.055 -0.0931,0 -0.15663,-0.055 -0.0635,-0.0593 -0.0635,-0.18203 0,-0.12277 0.0635,-0.1778 0.0635,-0.0593 0.15663,-0.0593 z m 0.18203,0.8509 v 2.26907 h -0.37253 v -2.26907 z m 1.0922,-0.94826 v 0.78316 q 0,0.14394 -0.008,0.27094 -0.004,0.12276 -0.0127,0.19473 h 0.0212 q 0.0974,-0.14393 0.2667,-0.2413 0.16933,-0.0974 0.43603,-0.0974 0.42334,0 0.67734,0.29634 0.25823,0.2921 0.25823,0.87629 0,0.5842 -0.25823,0.88054 -0.25824,0.29633 -0.67734,0.29633 -0.2667,0 -0.43603,-0.0974 -0.16933,-0.0974 -0.2667,-0.23283 h -0.0296 l -0.0762,0.28787 h -0.2667 v -3.21733 z m 0.63923,1.2192 q -0.36406,0 -0.50376,0.20743 -0.13547,0.20743 -0.13547,0.64346 v 0.0169 q 0,0.4191 0.13547,0.64346 0.1397,0.22014 0.51223,0.22014 0.3048,0 0.45297,-0.22437 0.1524,-0.22437 0.1524,-0.6477 0,-0.85936 -0.61384,-0.85936 z"
           id="text140-1-2-2"
           style="font-size:4.23333px;line-height:1.25;font-family:Sans;-inkscape-font-specification:Sans;text-align:center;text-anchor:middle;stroke-width:0.264583"
           aria-label="n.-usrlib" />
      </g>
      <g
         id="g5"
         transform="translate(-47.889578,20.232756)">
        <path
           d="m 141.0754,110.95685 q 0.4064,0 0.61384,0.19897 0.20743,0.19896 0.20743,0.635 v 1.47743 h -0.3683 v -1.45203 q 0,-0.5461 -0.508,-0.5461 -0.37677,0 -0.5207,0.21166 -0.14393,0.21167 -0.14393,0.6096 v 1.17687 h -0.37254 v -2.26907 h 0.30057 l 0.055,0.30904 h 0.0212 q 0.11007,-0.1778 0.3048,-0.26247 0.19473,-0.0889 0.41063,-0.0889 z m 1.46897,2.0828 q 0,-0.15663 0.0762,-0.22013 0.0762,-0.0635 0.18203,-0.0635 0.10584,0 0.18627,0.0635 0.0804,0.0635 0.0804,0.22013 0,0.1524 -0.0804,0.22013 -0.0804,0.0677 -0.18627,0.0677 -0.10583,0 -0.18203,-0.0677 -0.0762,-0.0677 -0.0762,-0.22013 z m 0.99906,-0.74083 v -0.3302 h 1.02447 v 0.3302 z m 1.92617,-2.2479 v 0.78316 q 0,0.14394 -0.008,0.27094 -0.004,0.12276 -0.0127,0.19473 h 0.0212 q 0.0974,-0.14393 0.2667,-0.2413 0.16933,-0.0974 0.43603,-0.0974 0.42334,0 0.67734,0.29634 0.25823,0.2921 0.25823,0.8763 0,0.5842 -0.25823,0.88053 -0.25824,0.29633 -0.67734,0.29633 -0.2667,0 -0.43603,-0.0974 -0.16933,-0.0974 -0.2667,-0.23284 h -0.0296 l -0.0762,0.28787 h -0.2667 v -3.21733 z m 0.63923,1.2192 q -0.36406,0 -0.50376,0.20743 -0.13547,0.20743 -0.13547,0.64347 v 0.0169 q 0,0.4191 0.13547,0.64347 0.1397,0.22013 0.51223,0.22013 0.3048,0 0.45297,-0.22437 0.1524,-0.22436 0.1524,-0.6477 0,-0.85936 -0.61384,-0.85936 z m 2.4511,-0.30904 q 0.41487,0 0.61383,0.18204 0.19897,0.18203 0.19897,0.57996 v 1.54517 h -0.27093 l -0.072,-0.32173 h -0.0169 q -0.14817,0.18626 -0.31327,0.27516 -0.1651,0.0889 -0.44873,0.0889 -0.30904,0 -0.51224,-0.16086 -0.2032,-0.1651 -0.2032,-0.51224 0,-0.33866 0.2667,-0.5207 0.2667,-0.18626 0.82127,-0.2032 l 0.38523,-0.0127 v -0.13546 q 0,-0.28364 -0.12276,-0.3937 -0.12277,-0.11007 -0.34714,-0.11007 -0.1778,0 -0.33866,0.055 -0.16087,0.0508 -0.30057,0.11854 l -0.1143,-0.2794 q 0.14817,-0.0804 0.35137,-0.13547 0.2032,-0.0593 0.42333,-0.0593 z m 0.4445,1.19804 -0.33443,0.0127 q -0.42334,0.0169 -0.58844,0.13546 -0.16086,0.11854 -0.16086,0.33444 0,0.1905 0.1143,0.2794 0.11853,0.0889 0.30056,0.0889 0.28364,0 0.47414,-0.15664 0.19473,-0.16086 0.19473,-0.49106 z m 2.54847,0.4826 q 0,0.3302 -0.24554,0.49953 -0.24553,0.16933 -0.66039,0.16933 -0.23707,0 -0.41064,-0.0381 -0.16933,-0.0381 -0.30056,-0.10583 v -0.33867 q 0.13546,0.0677 0.32596,0.127 0.19474,0.055 0.3937,0.055 0.28363,0 0.41063,-0.0889 0.127,-0.0931 0.127,-0.24554 0,-0.0847 -0.0466,-0.1524 -0.0466,-0.0677 -0.16934,-0.13546 -0.11853,-0.0677 -0.34289,-0.1524 -0.22014,-0.0847 -0.37677,-0.16934 -0.15663,-0.0847 -0.2413,-0.2032 -0.0847,-0.11853 -0.0847,-0.3048 0,-0.28786 0.23284,-0.4445 0.23706,-0.15663 0.61806,-0.15663 0.20743,0 0.38523,0.0423 0.18204,0.0423 0.33867,0.11007 l -0.127,0.29633 q -0.14393,-0.0593 -0.30057,-0.1016 -0.15663,-0.0423 -0.32173,-0.0423 -0.2286,0 -0.35136,0.0762 -0.11854,0.072 -0.11854,0.19897 0,0.0974 0.055,0.16086 0.055,0.0635 0.18203,0.127 0.13123,0.0635 0.34713,0.14394 0.2159,0.0804 0.3683,0.1651 0.1524,0.0847 0.23283,0.20743 0.0804,0.11853 0.0804,0.30057 z m 1.42663,-1.68487 q 0.28787,0 0.49953,0.127 0.21167,0.127 0.32174,0.35983 0.1143,0.2286 0.1143,0.53764 v 0.22436 h -1.55364 q 0.008,0.38524 0.19474,0.58844 0.1905,0.19896 0.52916,0.19896 0.2159,0 0.381,-0.0381 0.16934,-0.0423 0.34714,-0.11853 v 0.32597 q -0.17357,0.0762 -0.3429,0.11006 -0.16934,0.0381 -0.40217,0.0381 -0.32597,0 -0.5715,-0.13123 -0.24553,-0.13123 -0.38523,-0.38947 -0.13547,-0.25823 -0.13547,-0.63923 0,-0.37253 0.12277,-0.63923 0.127,-0.2667 0.35136,-0.41064 0.2286,-0.14393 0.52917,-0.14393 z m -0.004,0.3048 q -0.2667,0 -0.42334,0.17357 -0.1524,0.16933 -0.18203,0.47413 h 1.1557 q -0.004,-0.28787 -0.13547,-0.46567 -0.13123,-0.18203 -0.41486,-0.18203 z"
           id="text140-1-1"
           style="font-size:4.23333px;line-height:1.25;font-family:Sans;-inkscape-font-specification:Sans;text-align:center;text-anchor:middle;stroke-width:0.264583"
           aria-label="n.-base" />
      </g>
      <g
         id="g10"
         transform="translate(-47.937895,-19.583822)">
        <rect
           style="display:inline;fill:none;fill-opacity:1;stroke:#ff7c00;stroke-width:0.407786;stroke-dasharray:none;stroke-dashoffset:0;stroke-opacity:1"
           id="rect124-7-9-1"
           width="25.961149"
           height="7.0910492"
           x="134.01689"
           y="127.92701"
           ry="1.8024334" />
        <path
           d="m 137.40898,130.69995 q 0.4064,0 0.61384,0.19897 0.20743,0.19897 0.20743,0.635 v 1.47743 h -0.3683 v -1.45203 q 0,-0.5461 -0.508,-0.5461 -0.37677,0 -0.5207,0.21167 -0.14393,0.21166 -0.14393,0.6096 v 1.17686 h -0.37254 v -2.26906 h 0.30057 l 0.055,0.30903 h 0.0212 q 0.11007,-0.1778 0.3048,-0.26247 0.19473,-0.0889 0.41063,-0.0889 z m 1.7145,-0.80856 q 0.0847,0 0.14817,0.0593 0.0677,0.055 0.0677,0.17779 0,0.12277 -0.0677,0.18204 -0.0635,0.055 -0.14817,0.055 -0.0931,0 -0.15663,-0.055 -0.0635,-0.0593 -0.0635,-0.18204 0,-0.12276 0.0635,-0.17779 0.0635,-0.0593 0.15663,-0.0593 z m 0.18203,0.8509 v 2.26906 h -0.37253 v -2.26906 z m 2.1971,1.64253 q 0,0.3302 -0.24553,0.49953 -0.24554,0.16934 -0.6604,0.16934 -0.23707,0 -0.41063,-0.0381 -0.16934,-0.0381 -0.30057,-0.10584 v -0.33866 q 0.13547,0.0677 0.32596,0.127 0.19474,0.055 0.3937,0.055 0.28364,0 0.41064,-0.0889 0.127,-0.0931 0.127,-0.24553 0,-0.0847 -0.0466,-0.1524 -0.0466,-0.0677 -0.16933,-0.13547 -0.11854,-0.0677 -0.3429,-0.1524 -0.22014,-0.0847 -0.37677,-0.16933 -0.15663,-0.0847 -0.2413,-0.2032 -0.0847,-0.11854 -0.0847,-0.3048 0,-0.28787 0.23283,-0.4445 0.23706,-0.15664 0.61806,-0.15664 0.20744,0 0.38524,0.0423 0.18203,0.0423 0.33866,0.11006 l -0.127,0.29634 q -0.14393,-0.0593 -0.30056,-0.1016 -0.15664,-0.0423 -0.32174,-0.0423 -0.2286,0 -0.35136,0.0762 -0.11854,0.072 -0.11854,0.19897 0,0.0974 0.055,0.16087 0.055,0.0635 0.18203,0.127 0.13123,0.0635 0.34713,0.14393 0.2159,0.0804 0.3683,0.1651 0.1524,0.0847 0.23284,0.20743 0.0804,0.11854 0.0804,0.30057 z m 1.3081,0.36407 q 0.0847,0 0.17357,-0.0127 0.0889,-0.0127 0.14393,-0.0339 v 0.28363 q -0.0593,0.0296 -0.16933,0.0466 -0.11007,0.0212 -0.21167,0.0212 -0.1778,0 -0.3302,-0.0593 -0.14817,-0.0635 -0.2413,-0.2159 -0.0931,-0.1524 -0.0931,-0.42757 v -1.3208 h -0.32174 v -0.1778 l 0.32597,-0.14816 0.14817,-0.4826 h 0.22013 v 0.5207 h 0.65617 v 0.28786 h -0.65617 v 1.31234 q 0,0.20743 0.0974,0.30903 0.1016,0.0974 0.25823,0.0974 z m 1.8288,-2.04894 q 0.0635,0 0.13546,0.008 0.072,0.004 0.13124,0.0169 l -0.0466,0.3429 q -0.055,-0.0127 -0.12277,-0.0212 -0.0677,-0.008 -0.12276,-0.008 -0.17357,0 -0.32597,0.0974 -0.1524,0.0931 -0.24553,0.2667 -0.0889,0.16933 -0.0889,0.39793 v 1.21073 h -0.37253 v -2.26906 h 0.3048 l 0.0423,0.41486 h 0.0169 q 0.10584,-0.18626 0.2794,-0.32173 0.1778,-0.13547 0.41487,-0.13547 z m 1.48166,0 q 0.28787,0 0.49954,0.127 0.21166,0.127 0.32173,0.35984 0.1143,0.2286 0.1143,0.53763 v 0.22437 h -1.55363 q 0.008,0.38523 0.19473,0.58843 0.1905,0.19897 0.52917,0.19897 0.2159,0 0.381,-0.0381 0.16933,-0.0423 0.34713,-0.11854 v 0.32597 q -0.17357,0.0762 -0.3429,0.11007 -0.16933,0.0381 -0.40217,0.0381 -0.32596,0 -0.5715,-0.13124 -0.24553,-0.13123 -0.38523,-0.38946 -0.13547,-0.25824 -0.13547,-0.63924 0,-0.37253 0.12277,-0.63923 0.127,-0.2667 0.35137,-0.41063 0.2286,-0.14394 0.52916,-0.14394 z m -0.004,0.3048 q -0.2667,0 -0.42333,0.17357 -0.1524,0.16933 -0.18204,0.47413 h 1.1557 q -0.004,-0.28786 -0.13546,-0.46566 -0.13124,-0.18204 -0.41487,-0.18204 z m 2.37489,-0.30056 q 0.41487,0 0.61384,0.18203 0.19896,0.18203 0.19896,0.57997 v 1.54516 h -0.27093 l -0.072,-0.32173 h -0.0169 q -0.14817,0.18627 -0.31327,0.27517 -0.1651,0.0889 -0.44873,0.0889 -0.30903,0 -0.51223,-0.16087 -0.2032,-0.1651 -0.2032,-0.51223 0,-0.33867 0.2667,-0.5207 0.2667,-0.18627 0.82126,-0.2032 l 0.38524,-0.0127 v -0.13547 q 0,-0.28363 -0.12277,-0.3937 -0.12277,-0.11007 -0.34713,-0.11007 -0.1778,0 -0.33867,0.055 -0.16087,0.0508 -0.30057,0.11853 l -0.1143,-0.2794 q 0.14817,-0.0804 0.35137,-0.13547 0.2032,-0.0593 0.42333,-0.0593 z m 0.4445,1.19803 -0.33443,0.0127 q -0.42333,0.0169 -0.58843,0.13547 -0.16087,0.11853 -0.16087,0.33443 0,0.1905 0.1143,0.2794 0.11853,0.0889 0.30057,0.0889 0.28363,0 0.47413,-0.15663 0.19473,-0.16087 0.19473,-0.49107 z m 3.56024,-1.20227 q 0.38523,0 0.57573,0.19897 0.1905,0.19897 0.1905,0.635 v 1.47743 h -0.3683 v -1.4605 q 0,-0.53763 -0.46143,-0.53763 -0.3302,0 -0.47414,0.1905 -0.1397,0.1905 -0.1397,0.55457 v 1.25306 h -0.3683 v -1.4605 q 0,-0.53763 -0.46566,-0.53763 -0.3429,0 -0.47413,0.21167 -0.13124,0.21166 -0.13124,0.6096 v 1.17686 h -0.37253 v -2.26906 h 0.30057 l 0.055,0.30903 h 0.0212 q 0.10583,-0.1778 0.28363,-0.26247 0.18203,-0.0889 0.38523,-0.0889 0.5334,0 0.69427,0.381 h 0.0212 q 0.1143,-0.19473 0.30904,-0.28786 0.19473,-0.0931 0.4191,-0.0931 z m 2.34526,0 q 0.28787,0 0.49953,0.127 0.21167,0.127 0.32174,0.35984 0.1143,0.2286 0.1143,0.53763 v 0.22437 h -1.55364 q 0.008,0.38523 0.19474,0.58843 0.1905,0.19897 0.52916,0.19897 0.2159,0 0.381,-0.0381 0.16934,-0.0423 0.34714,-0.11854 v 0.32597 q -0.17357,0.0762 -0.3429,0.11007 -0.16934,0.0381 -0.40217,0.0381 -0.32597,0 -0.5715,-0.13124 -0.24553,-0.13123 -0.38523,-0.38946 -0.13547,-0.25824 -0.13547,-0.63924 0,-0.37253 0.12277,-0.63923 0.127,-0.2667 0.35136,-0.41063 0.2286,-0.14394 0.52917,-0.14394 z m -0.004,0.3048 q -0.2667,0 -0.42334,0.17357 -0.1524,0.16933 -0.18203,0.47413 h 1.1557 q -0.004,-0.28786 -0.13547,-0.46566 -0.13123,-0.18204 -0.41486,-0.18204 z m 2.57386,-0.3048 q 0.0635,0 0.13546,0.008 0.072,0.004 0.13124,0.0169 l -0.0466,0.3429 q -0.055,-0.0127 -0.12277,-0.0212 -0.0677,-0.008 -0.12276,-0.008 -0.17357,0 -0.32597,0.0974 -0.1524,0.0931 -0.24553,0.2667 -0.0889,0.16933 -0.0889,0.39793 v 1.21073 h -0.37254 v -2.26906 h 0.3048 l 0.0423,0.41486 h 0.0169 q 0.10583,-0.18626 0.2794,-0.32173 0.1778,-0.13547 0.41487,-0.13547 z"
           id="text140-15"
           style="font-size:4.23333px;line-height:1.25;font-family:Sans;-inkscape-font-specification:Sans;text-align:center;text-anchor:middle;stroke-width:0.264583"
           aria-label="nistreamer" />
      </g>
      <g
         id="g1"
         transform="translate(-77.274803,-25.730805)">
        <rect
           style="display:inline;fill:none;fill-opacity:1;stroke:#1f7dff;stroke-width:0.407786;stroke-dasharray:none;stroke-dashoffset:0;stroke-opacity:1"
           id="rect124-7-9-1-2"
           width="18.617235"
           height="7.0910492"
           x="167.02576"
           y="122.53355"
           ry="1.8024334" />
        <path
           d="m 171.44277,124.81965 q 0.41909,0 0.67309,0.2921 0.25824,0.2921 0.25824,0.88053 0,0.57997 -0.25824,0.88054 -0.254,0.30056 -0.67733,0.30056 -0.26246,0 -0.43603,-0.0974 -0.16933,-0.0974 -0.2667,-0.23284 h -0.0254 q 0.004,0.072 0.0127,0.18204 0.0127,0.11006 0.0127,0.1905 v 0.93133 h -0.37253 v -3.28506 h 0.3048 l 0.0508,0.30903 h 0.0169 q 0.1016,-0.14817 0.2667,-0.24977 0.1651,-0.1016 0.44027,-0.1016 z m -0.0677,0.31327 q -0.34713,0 -0.49106,0.19473 -0.14394,0.19473 -0.14817,0.59267 v 0.072 q 0,0.4191 0.13547,0.6477 0.1397,0.22437 0.51223,0.22437 0.2032,0 0.33866,-0.11007 0.13547,-0.1143 0.19897,-0.31326 0.0677,-0.19897 0.0677,-0.45297 0,-0.38947 -0.1524,-0.6223 -0.14816,-0.23283 -0.46143,-0.23283 z m 1.15146,-0.27093 h 0.39794 l 0.49106,1.29116 q 0.0635,0.17357 0.1143,0.32597 0.0508,0.1524 0.0762,0.2921 h 0.0169 q 0.0254,-0.10584 0.0804,-0.27517 0.055,-0.17357 0.1143,-0.34713 l 0.46143,-1.28693 h 0.40217 l -0.9779,2.58233 q -0.12277,0.32173 -0.30903,0.51223 -0.18627,0.1905 -0.51647,0.1905 -0.1016,0 -0.1778,-0.0127 -0.0762,-0.008 -0.13123,-0.0212 v -0.29633 q 0.0466,0.008 0.11006,0.0169 0.0677,0.008 0.1397,0.008 0.19474,0 0.31327,-0.11007 0.11853,-0.11006 0.1905,-0.2921 l 0.11853,-0.30056 z m 4.04284,2.92099 h -1.89654 v -0.27093 h 1.89654 z m 1.21073,-2.95909 q 0.41487,0 0.61383,0.18203 0.19897,0.18203 0.19897,0.57996 v 1.54517 h -0.27093 l -0.072,-0.32173 h -0.0169 q -0.14817,0.18626 -0.31327,0.27516 -0.1651,0.0889 -0.44873,0.0889 -0.30904,0 -0.51224,-0.16086 -0.2032,-0.1651 -0.2032,-0.51224 0,-0.33866 0.2667,-0.5207 0.2667,-0.18626 0.82127,-0.2032 l 0.38523,-0.0127 v -0.13546 q 0,-0.28364 -0.12276,-0.3937 -0.12277,-0.11007 -0.34714,-0.11007 -0.1778,0 -0.33866,0.055 -0.16087,0.0508 -0.30057,0.11853 l -0.1143,-0.2794 q 0.14817,-0.0804 0.35137,-0.13547 0.2032,-0.0593 0.42333,-0.0593 z m 0.4445,1.19803 -0.33443,0.0127 q -0.42334,0.0169 -0.58844,0.13546 -0.16086,0.11854 -0.16086,0.33444 0,0.1905 0.1143,0.2794 0.11853,0.0889 0.30056,0.0889 0.28364,0 0.47414,-0.15664 0.19473,-0.16086 0.19473,-0.49106 z m 2.15053,-1.20227 q 0.4191,0 0.6731,0.2921 0.25824,0.2921 0.25824,0.88053 0,0.57997 -0.25824,0.88054 -0.254,0.30056 -0.67733,0.30056 -0.26247,0 -0.43603,-0.0974 -0.16934,-0.0974 -0.2667,-0.23284 h -0.0254 q 0.004,0.072 0.0127,0.18204 0.0127,0.11006 0.0127,0.1905 v 0.93133 h -0.37254 v -3.28506 h 0.3048 l 0.0508,0.30903 h 0.0169 q 0.1016,-0.14817 0.2667,-0.24977 0.1651,-0.1016 0.44026,-0.1016 z m -0.0677,0.31327 q -0.34713,0 -0.49107,0.19473 -0.14393,0.19473 -0.14816,0.59267 v 0.072 q 0,0.4191 0.13546,0.6477 0.1397,0.22437 0.51224,0.22437 0.2032,0 0.33866,-0.11007 0.13547,-0.1143 0.19897,-0.31326 0.0677,-0.19897 0.0677,-0.45297 0,-0.38947 -0.1524,-0.6223 -0.14816,-0.23283 -0.46143,-0.23283 z m 1.78223,-1.12183 q 0.0847,0 0.14817,0.0593 0.0677,0.055 0.0677,0.1778 0,0.12277 -0.0677,0.18204 -0.0635,0.055 -0.14817,0.055 -0.0931,0 -0.15663,-0.055 -0.0635,-0.0593 -0.0635,-0.18204 0,-0.12276 0.0635,-0.1778 0.0635,-0.0593 0.15663,-0.0593 z m 0.18203,0.8509 v 2.26906 h -0.37253 v -2.26906 z"
           id="text140-15-4"
           style="font-size:4.23333px;line-height:1.25;font-family:Sans;-inkscape-font-specification:Sans;text-align:center;text-anchor:middle;stroke-width:0.264583"
           aria-label="py_api" />
      </g>
      <rect
         style="display:inline;fill:none;fill-opacity:1;stroke:#ff7c00;stroke-width:0.407786;stroke-dasharray:none;stroke-dashoffset:0;stroke-opacity:1"
         id="rect124-7-9-8-7-6"
         width="18.23842"
         height="7.0910568"
         x="89.940361"
         y="128.37645"
         ry="1.8024334" />
      <g
         id="g4"
         transform="translate(-47.79294,42.894957)">
        <rect
           style="display:inline;fill:none;fill-opacity:1;stroke:#ff7c00;stroke-width:0.407786;stroke-dasharray:none;stroke-dashoffset:0;stroke-opacity:1"
           id="rect124-7-9-8-6"
           width="24.5044"
           height="7.0910568"
           x="134.60031"
           y="96.999435"
           ry="1.8024334" />
        <path
           d="m 138.35411,99.35963 q 0.4064,0 0.61383,0.198967 0.20744,0.198966 0.20744,0.635003 v 1.47743 h -0.3683 V 100.219 q 0,-0.546104 -0.508,-0.546104 -0.37677,0 -0.5207,0.211667 -0.14393,0.211667 -0.14393,0.609597 v 1.17687 h -0.37254 v -2.269067 h 0.30057 l 0.055,0.309033 h 0.0212 q 0.11007,-0.177799 0.3048,-0.262466 0.19473,-0.0889 0.41063,-0.0889 z m 1.46897,2.0828 q 0,-0.15663 0.0762,-0.22013 0.0762,-0.0635 0.18203,-0.0635 0.10583,0 0.18627,0.0635 0.0804,0.0635 0.0804,0.22013 0,0.1524 -0.0804,0.22013 -0.0804,0.0677 -0.18627,0.0677 -0.10583,0 -0.18203,-0.0677 -0.0762,-0.0677 -0.0762,-0.22013 z m 0.99906,-0.74083 v -0.3302 h 1.02447 v 0.3302 z m 4.04283,-1.34197 q 0.38524,0 0.57574,0.198967 0.1905,0.198966 0.1905,0.635003 v 1.47743 h -0.3683 v -1.4605 q 0,-0.537634 -0.46144,-0.537634 -0.3302,0 -0.47413,0.1905 -0.1397,0.190504 -0.1397,0.554564 v 1.25307 h -0.3683 v -1.4605 q 0,-0.537634 -0.46567,-0.537634 -0.3429,0 -0.47413,0.211667 -0.13123,0.211667 -0.13123,0.609597 v 1.17687 h -0.37253 v -2.269067 h 0.30056 l 0.055,0.309033 h 0.0212 q 0.10583,-0.177799 0.28363,-0.262466 0.18204,-0.0889 0.38524,-0.0889 0.5334,0 0.69426,0.381 h 0.0212 q 0.1143,-0.194733 0.30903,-0.287867 0.19474,-0.09313 0.4191,-0.09313 z m 2.32833,0.0042 q 0.41487,0 0.61384,0.182034 0.19896,0.182033 0.19896,0.579966 v 1.54517 h -0.27093 l -0.072,-0.32173 h -0.0169 q -0.14817,0.18626 -0.31327,0.27516 -0.1651,0.0889 -0.44873,0.0889 -0.30903,0 -0.51223,-0.16087 -0.2032,-0.16509 -0.2032,-0.51223 0,-0.33866 0.2667,-0.5207 0.2667,-0.18626 0.82126,-0.2032 l 0.38524,-0.0127 v -0.13546 q 0,-0.28364 -0.12277,-0.393707 -0.12277,-0.110066 -0.34713,-0.110066 -0.1778,0 -0.33867,0.05503 -0.16087,0.0508 -0.30057,0.118533 l -0.1143,-0.279399 q 0.14817,-0.08043 0.35137,-0.135467 0.2032,-0.05927 0.42333,-0.05927 z m 0.4445,1.19804 -0.33443,0.0127 q -0.42333,0.0169 -0.58843,0.13546 -0.16087,0.11854 -0.16087,0.33444 0,0.1905 0.1143,0.2794 0.11853,0.0889 0.30057,0.0889 0.28363,0 0.47413,-0.15664 0.19473,-0.16086 0.19473,-0.49106 z m 1.9812,1.15146 q -0.3048,0 -0.53763,-0.12277 -0.23283,-0.12276 -0.3683,-0.38099 -0.13123,-0.25824 -0.13123,-0.6604 0,-0.4191 0.13547,-0.681573 0.13969,-0.262467 0.38099,-0.385233 0.2413,-0.122767 0.5461,-0.122767 0.16934,0 0.3302,0.0381 0.1651,0.03387 0.2667,0.08467 L 150.127,99.7914 q -0.1016,-0.0381 -0.23706,-0.07197 -0.13547,-0.03387 -0.254,-0.03387 -0.66887,0 -0.66887,0.85936 0,0.41064 0.16087,0.63077 0.1651,0.2159 0.48683,0.2159 0.18203,0 0.32597,-0.0381 0.14393,-0.0381 0.26246,-0.0931 v 0.33019 q -0.1143,0.0593 -0.254,0.0889 -0.13546,0.0339 -0.3302,0.0339 z m 2.18017,-2.353733 q 0.0635,0 0.13546,0.0085 0.072,0.0042 0.13124,0.01693 l -0.0466,0.3429 q -0.055,-0.0127 -0.12277,-0.02117 -0.0677,-0.0085 -0.12276,-0.0085 -0.17357,0 -0.32597,0.09737 -0.1524,0.09313 -0.24553,0.266693 -0.0889,0.16934 -0.0889,0.39794 v 1.21073 h -0.37254 v -2.269063 h 0.3048 l 0.0423,0.414867 h 0.0169 q 0.10583,-0.186267 0.2794,-0.321733 0.1778,-0.135467 0.41487,-0.135467 z m 2.57809,1.172633 q 0,0.56304 -0.28786,0.87207 -0.28364,0.30903 -0.77047,0.30903 -0.30057,0 -0.53763,-0.13547 -0.23284,-0.1397 -0.3683,-0.40216 -0.13547,-0.2667 -0.13547,-0.64347 0,-0.563033 0.2794,-0.867833 0.28363,-0.3048 0.7747,-0.3048 0.3048,0 0.54187,0.1397 0.23706,0.135467 0.3683,0.397933 0.13546,0.25824 0.13546,0.635 z m -1.7145,0 q 0,0.40217 0.15664,0.63924 0.16086,0.23283 0.508,0.23283 0.3429,0 0.50376,-0.23283 0.16087,-0.23707 0.16087,-0.63924 0,-0.40216 -0.16087,-0.630767 -0.16086,-0.2286 -0.508,-0.2286 -0.34713,0 -0.50376,0.2286 -0.15664,0.228607 -0.15664,0.630767 z m 3.78037,0.51224 q 0,0.3302 -0.24554,0.49953 -0.24553,0.16933 -0.6604,0.16933 -0.23706,0 -0.41063,-0.0381 -0.16933,-0.0381 -0.30057,-0.10583 v -0.33867 q 0.13547,0.0677 0.32597,0.127 0.19473,0.055 0.3937,0.055 0.28363,0 0.41063,-0.0889 0.127,-0.0931 0.127,-0.24554 0,-0.0847 -0.0466,-0.1524 -0.0466,-0.0677 -0.16934,-0.13546 -0.11853,-0.0677 -0.3429,-0.1524 -0.22013,-0.0847 -0.37676,-0.16934 -0.15664,-0.0847 -0.2413,-0.2032 -0.0847,-0.11853 -0.0847,-0.3048 0,-0.287867 0.23283,-0.4445 0.23707,-0.156633 0.61807,-0.156633 0.20743,0 0.38523,0.04233 0.18204,0.04233 0.33867,0.110067 l -0.127,0.296333 q -0.14393,-0.05927 -0.30057,-0.1016 -0.15663,-0.04233 -0.32173,-0.04233 -0.2286,0 -0.35137,0.0762 -0.11853,0.07197 -0.11853,0.198966 0,0.09736 0.055,0.160867 0.055,0.0635 0.18204,0.127 0.13123,0.0635 0.34713,0.14394 0.2159,0.0804 0.3683,0.1651 0.1524,0.0847 0.23283,0.20743 0.0804,0.11853 0.0804,0.30057 z"
           id="text140-1-7-8"
           style="font-size:4.23333px;line-height:1.25;font-family:Sans;-inkscape-font-specification:Sans;text-align:center;text-anchor:middle;stroke-width:0.264583"
           aria-label="n.-macros" />
      </g>
      <path
         style="fill:none;stroke:#8cc600;stroke-width:0.25;stroke-opacity:1;marker-end:url(#ConcaveTriangle-8)"
         d="m 99.059571,135.6714 v 2.32995"
         id="path9-1" />
      <path
         style="fill:none;stroke:#8cc600;stroke-width:0.25;stroke-opacity:1;marker-end:url(#ConcaveTriangle-8-7)"
         d="m 99.059571,104.09768 v 2.32995"
         id="path9-1-2" />
      <path
         style="fill:none;stroke:#8cc600;stroke-width:0.25;stroke-opacity:1;marker-end:url(#ConcaveTriangle-41-4)"
         d="m 99.059571,115.63813 v 10.86566"
         id="path9-7-8" />
      <rect
         style="fill:none;stroke:#b8b8b8;stroke-width:0.25;stroke-dasharray:0.5, 0.25;stroke-dashoffset:0;stroke-opacity:1"
         id="rect2"
         width="28.989395"
         height="54.182335"
         x="84.565109"
         y="94.802925"
         ry="1.8024333" />
      <rect
         style="fill:none;stroke:#b8b8b8;stroke-width:0.25;stroke-dasharray:0.5, 0.25;stroke-dashoffset:0;stroke-opacity:1"
         id="rect2-5"
         width="26.497971"
         height="11.085022"
         x="116.89523"
         y="116.48486"
         ry="1.8024333" />
      <g
         id="g2"
         transform="translate(0.89101669,-5.607431)">
        <path
           style="fill:#ffd3aa;fill-opacity:1;stroke:#b8b8b8;stroke-width:0.25;stroke-dasharray:0.499999, 0.25;stroke-dashoffset:0;stroke-opacity:1"
           d="m 121.864,146.28349 h 5.95191"
           id="path3" />
        <g
           id="text140-1-7-8-0"
           style="font-size:2.82222px;line-height:1.25;font-family:Sans;-inkscape-font-specification:Sans;stroke-width:0.264583"
           aria-label="repository&#10;boundary">
          <path
             d="m 130.01783,143.67998 q 0.0423,0 0.0903,0.006 0.048,0.003 0.0875,0.0113 l -0.031,0.2286 q -0.0367,-0.008 -0.0819,-0.0141 -0.0452,-0.006 -0.0818,-0.006 -0.11571,0 -0.21731,0.0649 -0.1016,0.0621 -0.16369,0.1778 -0.0593,0.11289 -0.0593,0.26529 v 0.80716 h -0.24835 v -1.51271 h 0.2032 l 0.0282,0.27657 h 0.0113 q 0.0705,-0.12417 0.18626,-0.21448 0.11854,-0.0903 0.27658,-0.0903 z m 0.98778,0 q 0.19191,0 0.33302,0.0847 0.14111,0.0847 0.21449,0.23989 0.0762,0.1524 0.0762,0.35842 v 0.14958 h -1.03576 q 0.006,0.25682 0.12983,0.39229 0.127,0.13264 0.35277,0.13264 0.14394,0 0.254,-0.0254 0.11289,-0.0282 0.23142,-0.079 v 0.21731 q -0.11571,0.0508 -0.2286,0.0734 -0.11288,0.0254 -0.26811,0.0254 -0.21731,0 -0.381,-0.0875 -0.16368,-0.0875 -0.25682,-0.25964 -0.0903,-0.17216 -0.0903,-0.42616 0,-0.24835 0.0819,-0.42615 0.0847,-0.1778 0.23424,-0.27376 0.1524,-0.096 0.35278,-0.096 z m -0.003,0.2032 q -0.1778,0 -0.28223,0.11572 -0.1016,0.11288 -0.12135,0.31608 h 0.77046 q -0.003,-0.19191 -0.0903,-0.31044 -0.0875,-0.12136 -0.27657,-0.12136 z m 1.73001,-0.2032 q 0.2794,0 0.44874,0.19474 0.17215,0.19473 0.17215,0.58702 0,0.38664 -0.17215,0.58702 -0.16934,0.20038 -0.45156,0.20038 -0.17498,0 -0.29069,-0.0649 -0.11289,-0.0649 -0.1778,-0.15522 h -0.0169 q 0.003,0.048 0.008,0.12135 0.008,0.0734 0.008,0.127 v 0.62089 h -0.24835 v -2.19004 h 0.2032 l 0.0339,0.20602 h 0.0113 q 0.0677,-0.0988 0.1778,-0.16651 0.11007,-0.0677 0.29351,-0.0677 z m -0.0452,0.20885 q -0.23142,0 -0.32738,0.12982 -0.096,0.12982 -0.0988,0.39511 v 0.048 q 0,0.2794 0.0903,0.4318 0.0931,0.14958 0.34149,0.14958 0.13547,0 0.22578,-0.0734 0.0903,-0.0762 0.13264,-0.20885 0.0452,-0.13264 0.0452,-0.30197 0,-0.25965 -0.1016,-0.41487 -0.0988,-0.15522 -0.30762,-0.15522 z m 2.37631,0.57291 q 0,0.37535 -0.19191,0.58138 -0.18909,0.20602 -0.51365,0.20602 -0.20038,0 -0.35842,-0.0903 -0.15522,-0.0931 -0.24553,-0.26811 -0.0903,-0.1778 -0.0903,-0.42898 0,-0.37536 0.18626,-0.57856 0.18909,-0.2032 0.51647,-0.2032 0.2032,0 0.36124,0.0931 0.15805,0.0903 0.24554,0.26529 0.0903,0.17215 0.0903,0.42333 z m -1.143,0 q 0,0.26811 0.10442,0.42615 0.10724,0.15523 0.33867,0.15523 0.2286,0 0.33584,-0.15523 0.10724,-0.15804 0.10724,-0.42615 0,-0.26811 -0.10724,-0.42051 -0.10724,-0.1524 -0.33867,-0.1524 -0.23142,0 -0.33584,0.1524 -0.10442,0.1524 -0.10442,0.42051 z m 2.52024,0.34149 q 0,0.22013 -0.16369,0.33302 -0.16369,0.11289 -0.44027,0.11289 -0.15804,0 -0.27375,-0.0254 -0.11289,-0.0254 -0.20038,-0.0706 v -0.22577 q 0.0903,0.0451 0.21731,0.0847 0.12982,0.0367 0.26247,0.0367 0.18909,0 0.27375,-0.0593 0.0847,-0.0621 0.0847,-0.16368 0,-0.0564 -0.031,-0.1016 -0.031,-0.0452 -0.11289,-0.0903 -0.079,-0.0452 -0.2286,-0.10159 -0.14676,-0.0564 -0.25118,-0.11289 -0.10442,-0.0565 -0.16087,-0.13547 -0.0564,-0.079 -0.0564,-0.2032 0,-0.19191 0.15522,-0.29633 0.15804,-0.10443 0.41204,-0.10443 0.13829,0 0.25683,0.0282 0.12135,0.0282 0.22577,0.0734 l -0.0847,0.19756 q -0.096,-0.0395 -0.20038,-0.0677 -0.10442,-0.0282 -0.21449,-0.0282 -0.1524,0 -0.23424,0.0508 -0.079,0.048 -0.079,0.13265 0,0.0649 0.0367,0.10724 0.0367,0.0423 0.12136,0.0847 0.0875,0.0423 0.23142,0.096 0.14393,0.0536 0.24553,0.11006 0.1016,0.0564 0.15523,0.13829 0.0536,0.079 0.0536,0.20038 z m 0.49389,-1.66229 q 0.0564,0 0.0988,0.0395 0.0452,0.0367 0.0452,0.11853 0,0.0819 -0.0452,0.12136 -0.0423,0.0367 -0.0988,0.0367 -0.0621,0 -0.10442,-0.0367 -0.0423,-0.0395 -0.0423,-0.12136 0,-0.0818 0.0423,-0.11853 0.0423,-0.0395 0.10442,-0.0395 z m 0.12135,0.56727 v 1.51271 h -0.24835 v -1.51271 z m 0.98496,1.33773 q 0.0564,0 0.11571,-0.008 0.0593,-0.008 0.096,-0.0226 v 0.18909 q -0.0395,0.0198 -0.11289,0.031 -0.0734,0.0141 -0.14111,0.0141 -0.11853,0 -0.22013,-0.0395 -0.0988,-0.0423 -0.16087,-0.14394 -0.0621,-0.1016 -0.0621,-0.28504 v -0.88053 h -0.21448 v -0.11854 l 0.21731,-0.0988 0.0988,-0.32174 h 0.14676 v 0.34714 h 0.43744 v 0.19191 h -0.43744 v 0.87489 q 0,0.13828 0.0649,0.20602 0.0677,0.0649 0.17216,0.0649 z m 1.8288,-0.5842 q 0,0.37535 -0.19192,0.58138 -0.18908,0.20602 -0.51364,0.20602 -0.20038,0 -0.35842,-0.0903 -0.15522,-0.0931 -0.24553,-0.26811 -0.0903,-0.1778 -0.0903,-0.42898 0,-0.37536 0.18627,-0.57856 0.18909,-0.2032 0.51647,-0.2032 0.2032,0 0.36124,0.0931 0.15805,0.0903 0.24553,0.26529 0.0903,0.17215 0.0903,0.42333 z m -1.143,0 q 0,0.26811 0.10442,0.42615 0.10724,0.15523 0.33866,0.15523 0.2286,0 0.33585,-0.15523 0.10724,-0.15804 0.10724,-0.42615 0,-0.26811 -0.10724,-0.42051 -0.10725,-0.1524 -0.33867,-0.1524 -0.23142,0 -0.33584,0.1524 -0.10442,0.1524 -0.10442,0.42051 z m 2.24084,-0.78176 q 0.0423,0 0.0903,0.006 0.048,0.003 0.0875,0.0113 l -0.031,0.2286 q -0.0367,-0.008 -0.0818,-0.0141 -0.0452,-0.006 -0.0819,-0.006 -0.11571,0 -0.21731,0.0649 -0.1016,0.0621 -0.16369,0.1778 -0.0593,0.11289 -0.0593,0.26529 v 0.80716 h -0.24836 v -1.51271 h 0.2032 l 0.0282,0.27657 h 0.0113 q 0.0706,-0.12417 0.18627,-0.21448 0.11853,-0.0903 0.27658,-0.0903 z m 0.22295,0.0282 h 0.26529 l 0.32738,0.86077 q 0.0423,0.11571 0.0762,0.21731 0.0339,0.1016 0.0508,0.19474 h 0.0113 q 0.0169,-0.0706 0.0536,-0.18345 0.0367,-0.11571 0.0762,-0.23142 l 0.30762,-0.85795 h 0.26811 l -0.65193,1.72155 q -0.0818,0.21449 -0.20602,0.34149 -0.12418,0.127 -0.34431,0.127 -0.0677,0 -0.11854,-0.008 -0.0508,-0.006 -0.0875,-0.0141 v -0.19755 q 0.031,0.006 0.0734,0.0113 0.0452,0.006 0.0931,0.006 0.12982,0 0.20884,-0.0734 0.079,-0.0734 0.127,-0.19473 l 0.079,-0.20038 z"
             id="path1" />
          <path
             d="m 129.56063,146.6038 v 0.52212 q 0,0.0959 -0.006,0.18062 -0.003,0.0818 -0.008,0.12982 h 0.0141 q 0.0649,-0.096 0.1778,-0.16087 0.11289,-0.0649 0.29069,-0.0649 0.28222,0 0.45156,0.19756 0.17215,0.19473 0.17215,0.5842 0,0.38946 -0.17215,0.58702 -0.17216,0.19755 -0.45156,0.19755 -0.1778,0 -0.29069,-0.0649 -0.11289,-0.0649 -0.1778,-0.15522 h -0.0198 l -0.0508,0.19191 h -0.1778 v -2.14489 z m 0.42616,0.8128 q -0.24271,0 -0.33585,0.13829 -0.0903,0.13829 -0.0903,0.42898 v 0.0113 q 0,0.2794 0.0903,0.42898 0.0931,0.14675 0.34149,0.14675 0.2032,0 0.30198,-0.14958 0.1016,-0.14957 0.1016,-0.4318 0,-0.57291 -0.40922,-0.57291 z m 2.37631,0.57291 q 0,0.37536 -0.19192,0.58138 -0.18908,0.20602 -0.51364,0.20602 -0.20038,0 -0.35842,-0.0903 -0.15522,-0.0931 -0.24553,-0.26811 -0.0903,-0.1778 -0.0903,-0.42898 0,-0.37535 0.18627,-0.57855 0.18909,-0.2032 0.51647,-0.2032 0.2032,0 0.36124,0.0931 0.15805,0.0903 0.24553,0.26529 0.0903,0.17216 0.0903,0.42333 z m -1.143,0 q 0,0.26812 0.10442,0.42616 0.10724,0.15522 0.33867,0.15522 0.22859,0 0.33584,-0.15522 0.10724,-0.15804 0.10724,-0.42616 0,-0.26811 -0.10724,-0.42051 -0.10725,-0.1524 -0.33867,-0.1524 -0.23142,0 -0.33584,0.1524 -0.10442,0.1524 -0.10442,0.42051 z m 2.79964,-0.75353 v 1.51271 h -0.2032 l -0.0367,-0.20038 h -0.0113 q -0.0734,0.11854 -0.2032,0.17498 -0.12982,0.0536 -0.27658,0.0536 -0.27375,0 -0.41204,-0.12982 -0.13829,-0.13264 -0.13829,-0.42051 v -0.9906 h 0.25118 v 0.97367 q 0,0.36124 0.33584,0.36124 0.25118,0 0.34713,-0.14111 0.0988,-0.14111 0.0988,-0.4064 v -0.7874 z m 1.20791,-0.0282 q 0.27093,0 0.40922,0.13264 0.13829,0.13265 0.13829,0.42334 v 0.98495 h -0.24553 v -0.96802 q 0,-0.36407 -0.33867,-0.36407 -0.25118,0 -0.34713,0.14111 -0.096,0.14112 -0.096,0.4064 v 0.78458 h -0.24835 V 147.236 h 0.20037 l 0.0367,0.20602 h 0.0141 q 0.0734,-0.11853 0.2032,-0.17497 0.12982,-0.0593 0.27376,-0.0593 z m 1.55222,1.56915 q -0.28222,0 -0.45156,-0.19473 -0.16933,-0.19755 -0.16933,-0.58702 0,-0.38947 0.16933,-0.58702 0.17216,-0.20038 0.45438,-0.20038 0.17498,0 0.28505,0.0649 0.11288,0.0649 0.18344,0.15805 h 0.0169 q -0.006,-0.0367 -0.0113,-0.10725 -0.006,-0.0734 -0.006,-0.11571 v -0.60396 h 0.24836 v 2.14489 h -0.20038 l -0.0367,-0.2032 h -0.0113 q -0.0677,0.096 -0.18062,0.16369 -0.11289,0.0677 -0.29069,0.0677 z m 0.0395,-0.20602 q 0.23989,0 0.33584,-0.12982 0.0988,-0.13264 0.0988,-0.39793 v -0.0452 q 0,-0.28222 -0.0931,-0.4318 -0.0931,-0.1524 -0.34431,-0.1524 -0.20038,0 -0.30198,0.16087 -0.0988,0.15804 -0.0988,0.42615 0,0.27094 0.0988,0.42051 0.1016,0.14958 0.3048,0.14958 z m 1.73284,-1.36031 q 0.27658,0 0.40922,0.12136 0.13265,0.12135 0.13265,0.38664 v 1.03011 h -0.18062 l -0.048,-0.21449 h -0.0113 q -0.0988,0.12418 -0.20884,0.18345 -0.11007,0.0593 -0.29916,0.0593 -0.20602,0 -0.34149,-0.10724 -0.13547,-0.11007 -0.13547,-0.34149 0,-0.22578 0.1778,-0.34713 0.1778,-0.12418 0.54752,-0.13547 l 0.25682,-0.008 v -0.0903 q 0,-0.18909 -0.0819,-0.26246 -0.0818,-0.0734 -0.23142,-0.0734 -0.11853,0 -0.22578,0.0367 -0.10724,0.0339 -0.20037,0.079 l -0.0762,-0.18627 q 0.0988,-0.0536 0.23424,-0.0903 0.13547,-0.0395 0.28222,-0.0395 z m 0.29634,0.79869 -0.22296,0.008 q -0.28222,0.0113 -0.39229,0.0903 -0.10724,0.079 -0.10724,0.22295 0,0.127 0.0762,0.18627 0.079,0.0593 0.20037,0.0593 0.18909,0 0.31609,-0.10443 0.12983,-0.10724 0.12983,-0.32737 z m 1.41957,-0.80151 q 0.0423,0 0.0903,0.006 0.048,0.003 0.0875,0.0113 l -0.031,0.2286 q -0.0367,-0.008 -0.0818,-0.0141 -0.0452,-0.006 -0.0818,-0.006 -0.11571,0 -0.21731,0.0649 -0.1016,0.0621 -0.16369,0.1778 -0.0593,0.11289 -0.0593,0.26529 v 0.80715 h -0.24836 v -1.51271 h 0.2032 l 0.0282,0.27658 h 0.0113 q 0.0706,-0.12418 0.18627,-0.21449 0.11853,-0.0903 0.27657,-0.0903 z m 0.22296,0.0282 h 0.26529 l 0.32738,0.86078 q 0.0423,0.11571 0.0762,0.21731 0.0339,0.1016 0.0508,0.19473 h 0.0113 q 0.0169,-0.0705 0.0536,-0.18344 0.0367,-0.11571 0.0762,-0.23142 l 0.30762,-0.85796 h 0.26811 l -0.65193,1.72156 q -0.0819,0.21448 -0.20602,0.34148 -0.12418,0.127 -0.34432,0.127 -0.0677,0 -0.11853,-0.008 -0.0508,-0.006 -0.0875,-0.0141 v -0.19756 q 0.0311,0.006 0.0734,0.0113 0.0452,0.006 0.0931,0.006 0.12983,0 0.20885,-0.0734 0.079,-0.0734 0.127,-0.19474 l 0.079,-0.20037 z"
             id="path2" />
        </g>
      </g>
      <path
         style="fill:none;fill-opacity:1;stroke:#8cc600;stroke-width:0.265;stroke-dasharray:none;stroke-opacity:1;marker-end:url(#ConcaveTriangle-5-4)"
         d="m 126.4736,125.77754 c -0.12937,4.88197 -9.76278,6.14443 -16.27737,6.14443"
         id="path10-2-7" />
      <path
         style="fill:none;fill-opacity:1;stroke:#8cc600;stroke-width:0.265;stroke-dasharray:none;stroke-opacity:1;marker-start:url(#ConcaveTriangle-5)"
         d="m 124.30732,116.64174 c -1.4642,-2.57129 -5.57875,-4.75302 -12.26717,-4.75302"
         id="path10-2-7-0" />
      <path
         d="m 121.68865,147.05569 -0.0564,0.72813 h -0.15522 l -0.0564,-0.72813 z m 0.51646,0 -0.0564,0.72813 h -0.15522 l -0.0564,-0.72813 z m 1.0668,0.47413 q 0.27094,0 0.40922,0.13265 0.13829,0.13264 0.13829,0.42333 v 0.98496 h -0.24553 v -0.96803 q 0,-0.36406 -0.33867,-0.36406 -0.25117,0 -0.34713,0.14111 -0.096,0.14111 -0.096,0.4064 v 0.78458 h -0.24836 v -1.51271 h 0.20038 l 0.0367,0.20602 h 0.0141 q 0.0734,-0.11854 0.2032,-0.17498 0.12982,-0.0593 0.27375,-0.0593 z m 0.97931,1.38854 q 0,-0.10443 0.0508,-0.14676 0.0508,-0.0423 0.12136,-0.0423 0.0706,0 0.12418,0.0423 0.0536,0.0423 0.0536,0.14676 0,0.1016 -0.0536,0.14675 -0.0536,0.0452 -0.12418,0.0452 -0.0706,0 -0.12136,-0.0452 -0.0508,-0.0452 -0.0508,-0.14675 z m 1.00471,-1.86267 -0.0564,0.72813 h -0.15522 l -0.0564,-0.72813 z m 0.51647,0 -0.0564,0.72813 h -0.15522 l -0.0564,-0.72813 z m 1.07527,0.84102 v -0.20038 h 1.29257 v 0.20038 z m 0,0.56162 v -0.20037 h 1.29257 v 0.20037 z m 3.15806,-0.92851 q 0.27094,0 0.40923,0.13265 0.13828,0.13264 0.13828,0.42333 v 0.98496 h -0.24553 v -0.96803 q 0,-0.36406 -0.33866,-0.36406 -0.25118,0 -0.34714,0.14111 -0.096,0.14111 -0.096,0.4064 v 0.78458 h -0.24836 v -1.51271 h 0.20038 l 0.0367,0.20602 h 0.0141 q 0.0734,-0.11854 0.2032,-0.17498 0.12982,-0.0593 0.27375,-0.0593 z m 1.143,-0.53904 q 0.0565,0 0.0988,0.0395 0.0452,0.0367 0.0452,0.11853 0,0.0819 -0.0452,0.12136 -0.0423,0.0367 -0.0988,0.0367 -0.0621,0 -0.10442,-0.0367 -0.0423,-0.0395 -0.0423,-0.12136 0,-0.0818 0.0423,-0.11853 0.0423,-0.0395 0.10442,-0.0395 z m 0.12136,0.56727 v 1.51271 h -0.24836 v -1.51271 z m 1.46473,1.09502 q 0,0.22013 -0.16369,0.33302 -0.16369,0.11289 -0.44027,0.11289 -0.15804,0 -0.27375,-0.0254 -0.11289,-0.0254 -0.20038,-0.0706 v -0.22578 q 0.0903,0.0452 0.21731,0.0847 0.12982,0.0367 0.26247,0.0367 0.18909,0 0.27375,-0.0593 0.0847,-0.0621 0.0847,-0.16369 0,-0.0564 -0.031,-0.1016 -0.031,-0.0452 -0.11289,-0.0903 -0.079,-0.0452 -0.2286,-0.1016 -0.14676,-0.0564 -0.25118,-0.11289 -0.10442,-0.0564 -0.16087,-0.13546 -0.0564,-0.079 -0.0564,-0.2032 0,-0.19191 0.15522,-0.29634 0.15805,-0.10442 0.41204,-0.10442 0.13829,0 0.25683,0.0282 0.12135,0.0282 0.22577,0.0734 l -0.0847,0.19756 q -0.096,-0.0395 -0.20038,-0.0677 -0.10442,-0.0282 -0.21449,-0.0282 -0.1524,0 -0.23424,0.0508 -0.079,0.048 -0.079,0.13265 0,0.0649 0.0367,0.10724 0.0367,0.0423 0.12136,0.0847 0.0875,0.0423 0.23142,0.0959 0.14393,0.0536 0.24553,0.11007 0.1016,0.0564 0.15523,0.13829 0.0536,0.079 0.0536,0.20038 z m 0.87207,0.24271 q 0.0564,0 0.11571,-0.008 0.0593,-0.008 0.0959,-0.0226 v 0.18909 q -0.0395,0.0198 -0.11289,0.031 -0.0734,0.0141 -0.14111,0.0141 -0.11853,0 -0.22013,-0.0395 -0.0988,-0.0423 -0.16087,-0.14394 -0.0621,-0.1016 -0.0621,-0.28504 v -0.88053 h -0.21449 v -0.11854 l 0.21732,-0.0988 0.0988,-0.32174 h 0.14676 v 0.34714 h 0.43744 v 0.19191 h -0.43744 v 0.87488 q 0,0.13829 0.0649,0.20603 0.0677,0.0649 0.17216,0.0649 z m 1.21919,-1.36596 q 0.0423,0 0.0903,0.006 0.048,0.003 0.0875,0.0113 l -0.031,0.2286 q -0.0367,-0.008 -0.0818,-0.0141 -0.0452,-0.006 -0.0819,-0.006 -0.11571,0 -0.21731,0.0649 -0.1016,0.0621 -0.16369,0.1778 -0.0593,0.11289 -0.0593,0.26529 v 0.80716 h -0.24836 v -1.51271 h 0.2032 l 0.0282,0.27657 h 0.0113 q 0.0706,-0.12418 0.18627,-0.21449 0.11853,-0.0903 0.27657,-0.0903 z m 0.98778,0 q 0.19191,0 0.33302,0.0847 0.14111,0.0847 0.21449,0.23989 0.0762,0.1524 0.0762,0.35842 v 0.14958 h -1.03575 q 0.006,0.25682 0.12982,0.39229 0.127,0.13264 0.35278,0.13264 0.14393,0 0.254,-0.0254 0.11289,-0.0282 0.23142,-0.079 v 0.21731 q -0.11571,0.0508 -0.2286,0.0734 -0.11289,0.0254 -0.26811,0.0254 -0.21731,0 -0.381,-0.0875 -0.16369,-0.0875 -0.25682,-0.25965 -0.0903,-0.17215 -0.0903,-0.42615 0,-0.24836 0.0819,-0.42616 0.0847,-0.1778 0.23424,-0.27375 0.1524,-0.096 0.35278,-0.096 z m -0.003,0.2032 q -0.1778,0 -0.28222,0.11571 -0.1016,0.11289 -0.12136,0.31609 h 0.77047 q -0.003,-0.19191 -0.0903,-0.31044 -0.0875,-0.12136 -0.27658,-0.12136 z m 1.58326,-0.20037 q 0.27658,0 0.40922,0.12135 0.13265,0.12136 0.13265,0.38664 v 1.03012 h -0.18062 l -0.048,-0.21449 h -0.0113 q -0.0988,0.12417 -0.20885,0.18344 -0.11006,0.0593 -0.29915,0.0593 -0.20602,0 -0.34149,-0.10725 -0.13547,-0.11006 -0.13547,-0.34149 0,-0.22577 0.1778,-0.34713 0.1778,-0.12418 0.54751,-0.13547 l 0.25683,-0.008 v -0.0903 q 0,-0.18909 -0.0818,-0.26247 -0.0818,-0.0734 -0.23142,-0.0734 -0.11853,0 -0.22578,0.0367 -0.10724,0.0339 -0.20037,0.079 l -0.0762,-0.18626 q 0.0988,-0.0536 0.23424,-0.0903 0.13547,-0.0395 0.28222,-0.0395 z m 0.29633,0.79868 -0.22295,0.008 q -0.28222,0.0113 -0.39229,0.0903 -0.10724,0.079 -0.10724,0.22296 0,0.127 0.0762,0.18626 0.079,0.0593 0.20037,0.0593 0.18909,0 0.31609,-0.10442 0.12982,-0.10725 0.12982,-0.32738 z m 2.37349,-0.80151 q 0.25683,0 0.38383,0.13265 0.127,0.13264 0.127,0.42333 v 0.98496 h -0.24554 v -0.97367 q 0,-0.35842 -0.30762,-0.35842 -0.22013,0 -0.31609,0.127 -0.0931,0.127 -0.0931,0.36971 v 0.83538 h -0.24553 v -0.97367 q 0,-0.35842 -0.31045,-0.35842 -0.2286,0 -0.31609,0.14111 -0.0875,0.14111 -0.0875,0.4064 v 0.78458 h -0.24835 v -1.51271 h 0.20038 l 0.0367,0.20602 h 0.0141 q 0.0705,-0.11854 0.18909,-0.17498 0.12135,-0.0593 0.25682,-0.0593 0.3556,0 0.46284,0.254 h 0.0141 q 0.0762,-0.12982 0.20602,-0.19191 0.12983,-0.0621 0.2794,-0.0621 z m 1.56351,0 q 0.19191,0 0.33303,0.0847 0.14111,0.0847 0.21448,0.23989 0.0762,0.1524 0.0762,0.35842 v 0.14958 h -1.03575 q 0.006,0.25682 0.12982,0.39229 0.127,0.13264 0.35278,0.13264 0.14393,0 0.254,-0.0254 0.11289,-0.0282 0.23142,-0.079 v 0.21731 q -0.11571,0.0508 -0.2286,0.0734 -0.11289,0.0254 -0.26811,0.0254 -0.21731,0 -0.381,-0.0875 -0.16369,-0.0875 -0.25682,-0.25965 -0.0903,-0.17215 -0.0903,-0.42615 0,-0.24836 0.0818,-0.42616 0.0847,-0.1778 0.23425,-0.27375 0.1524,-0.096 0.35277,-0.096 z m -0.003,0.2032 q -0.1778,0 -0.28222,0.11571 -0.1016,0.11289 -0.12136,0.31609 h 0.77047 q -0.003,-0.19191 -0.0903,-0.31044 -0.0875,-0.12136 -0.27658,-0.12136 z m 1.71591,-0.2032 q 0.0423,0 0.0903,0.006 0.048,0.003 0.0875,0.0113 l -0.031,0.2286 q -0.0367,-0.008 -0.0818,-0.0141 -0.0452,-0.006 -0.0819,-0.006 -0.11571,0 -0.21731,0.0649 -0.1016,0.0621 -0.16369,0.1778 -0.0593,0.11289 -0.0593,0.26529 v 0.80716 h -0.24836 v -1.51271 h 0.2032 l 0.0282,0.27657 h 0.0113 q 0.0706,-0.12418 0.18627,-0.21449 0.11853,-0.0903 0.27658,-0.0903 z"
         id="text140-1-7-8-0-6"
         style="font-size:2.82222px;line-height:1.25;font-family:Sans;-inkscape-font-specification:Sans;stroke-width:0.264583"
         aria-label="&quot;n.&quot; = nistreamer" />
    </g>
  </g>
</svg>
